<svg class="main-svg" xmlns="http://www.w3.org/2000/svg" xmlns:xlink="http://www.w3.org/1999/xlink" width="700" height="500" style="" viewBox="0 0 700 500"><rect x="0" y="0" width="700" height="500" style="fill: rgb(255, 255, 255); fill-opacity: 1;"/><defs id="defs-a3fc29"><g class="clips"><clipPath id="clipa3fc29polar-for-traces"><path d="M80,0A80,80 0,1,0 -80,-9.797174393178826e-15A80,80 0,1,0 80,1.9594348786357652e-14Z" transform="translate(80,80)"/></clipPath></g><g class="gradients"/><g class="patterns"/></defs><g class="bglayer"/><g class="layer-below"><g class="imagelayer"/><g class="shapelayer"/></g><g class="cartesianlayer"/><g class="polarlayer"><g class="polar"><g class="polarsublayer draglayer"/><g class="polarsublayer plotbg"><path d="M80,0A80,80 0,1,0 -80,-9.797174393178826e-15A80,80 0,1,0 80,1.9594348786357652e-14Z" transform="translate(350,308)" style="fill: rgb(229, 236, 246); fill-opacity: 1;"/></g><g class="polarsublayer backplot"><g class="maplayer"/></g><g class="polarsublayer angular-grid" style="fill: none;"><path class="angularaxisgrid" d="M350,308L430,308" style="stroke: rgb(255, 255, 255); stroke-opacity: 1; stroke-width: 1px;"/><path class="angularaxisgrid" d="M350,308L390,238.71796769724492" style="stroke: rgb(255, 255, 255); stroke-opacity: 1; stroke-width: 1px;"/><path class="angularaxisgrid" d="M350,308L310,238.7179676972449" style="stroke: rgb(255, 255, 255); stroke-opacity: 1; stroke-width: 1px;"/><path class="angularaxisgrid" d="M350,308L270,308" style="stroke: rgb(255, 255, 255); stroke-opacity: 1; stroke-width: 1px;"/><path class="angularaxisgrid" d="M350,308L309.99999999999994,377.28203230275506" style="stroke: rgb(255, 255, 255); stroke-opacity: 1; stroke-width: 1px;"/><path class="angularaxisgrid" d="M350,308L390,377.28203230275506" style="stroke: rgb(255, 255, 255); stroke-opacity: 1; stroke-width: 1px;"/></g><g class="polarsublayer radial-grid" transform="translate(350,308)" style="fill: none;"><path class="xgrid" d="M13.78,0A13.78,13.78 0,1,0 -13.78,-1.6875632892250526e-15A13.78,13.78 0,1,0 13.78,3.375126578450105e-15Z" style="stroke: rgb(255, 255, 255); stroke-opacity: 1; stroke-width: 1px;"/><path class="xgrid" d="M27.57,0A27.57,27.57 0,1,0 -27.57,-3.3763512252492527e-15A27.57,27.57 0,1,0 27.57,6.7527024504985055e-15Z" style="stroke: rgb(255, 255, 255); stroke-opacity: 1; stroke-width: 1px;"/><path class="xgrid" d="M41.35,0A41.35,41.35 0,1,0 -41.35,-5.063914514474305e-15A41.35,41.35 0,1,0 41.35,1.012782902894861e-14Z" style="stroke: rgb(255, 255, 255); stroke-opacity: 1; stroke-width: 1px;"/><path class="xgrid" d="M55.14,0A55.14,55.14 0,1,0 -55.14,-6.7527024504985055e-15A55.14,55.14 0,1,0 55.14,1.3505404900997011e-14Z" style="stroke: rgb(255, 255, 255); stroke-opacity: 1; stroke-width: 1px;"/><path class="xgrid" d="M68.92,0A68.92,68.92 0,1,0 -68.92,-8.440265739723559e-15A68.92,68.92 0,1,0 68.92,1.6880531479447118e-14Z" style="stroke: rgb(255, 255, 255); stroke-opacity: 1; stroke-width: 1px;"/></g><g class="polarsublayer frontplot" transform="translate(270,228)" clip-path="url(#clipa3fc29polar-for-traces)"><g class="barlayer"/><g class="scatterlayer"><g class="trace scatter trace86abfc" style="stroke-miterlimit: 2; opacity: 0.25;"><g class="fills"/><g class="errorbars"/><g class="lines"><path class="js-line" d="M88.63,80L88.25,65.71L78.64,77.65L52.95,80L73.45,91.35L87.4,92.82L88.63,80" style="vector-effect: none; fill: none; stroke: rgb(0, 0, 255); stroke-opacity: 1; stroke-width: 2px; opacity: 1;"/></g><g class="points"/><g class="text"/></g><g class="trace scatter trace6d947f" style="stroke-miterlimit: 2; opacity: 0.25;"><g class="fills"/><g class="errorbars"/><g class="lines"><path class="js-line" d="M91.63,80L90.57,61.7L71.03,64.47L25.2,80L71.41,94.88L90.76,98.63L91.63,80" style="vector-effect: none; fill: none; stroke: rgb(255, 0, 0); stroke-opacity: 1; stroke-width: 2px; opacity: 1;"/></g><g class="points"/><g class="text"/></g><g class="trace scatter tracefc4d70" style="stroke-miterlimit: 2; opacity: 0.25;"><g class="fills"/><g class="errorbars"/><g class="lines"><path class="js-line" d="M87.05,80L88.36,65.51L75.32,71.9L59.11,80L73.85,90.66L89.16,95.86L87.05,80" style="vector-effect: none; fill: none; stroke: rgb(255, 0, 0); stroke-opacity: 1; stroke-width: 2px; opacity: 1;"/></g><g class="points"/><g class="text"/></g><g class="trace scatter trace944df0" style="stroke-miterlimit: 2; opacity: 0.25;"><g class="fills"/><g class="errorbars"/><g class="lines"><path class="js-line" d="M92.35,80L91.48,60.12L70.87,64.18L52.5,80L71.92,93.99L92.58,101.78L92.35,80" style="vector-effect: none; fill: none; stroke: rgb(0, 0, 255); stroke-opacity: 1; stroke-width: 2px; opacity: 1;"/></g><g class="points"/><g class="text"/></g><g class="trace scatter tracef3b023" style="stroke-miterlimit: 2; opacity: 0.25;"><g class="fills"/><g class="errorbars"/><g class="lines"><path class="js-line" d="M88.09,80L88.11,65.96L76.82,74.49L55.13,80L72.75,92.55L87.17,92.42L88.09,80" style="vector-effect: none; fill: none; stroke: rgb(0, 0, 255); stroke-opacity: 1; stroke-width: 2px; opacity: 1;"/></g><g class="points"/><g class="text"/></g><g class="trace scatter trace3ddae0" style="stroke-miterlimit: 2; opacity: 0.25;"><g class="fills"/><g class="errorbars"/><g class="lines"><path class="js-line" d="M95.13,80L98.14,48.58L66.21,56.11L35.41,80L68.06,100.68L104.75,122.88L95.13,80" style="vector-effect: none; fill: none; stroke: rgb(255, 0, 0); stroke-opacity: 1; stroke-width: 2px; opacity: 1;"/></g><g class="points"/><g class="text"/></g><g class="trace scatter trace960816" style="stroke-miterlimit: 2; opacity: 0.25;"><g class="fills"/><g class="errorbars"/><g class="lines"><path class="js-line" d="M99.35,80L100.43,44.62L57.09,40.32L23.74,80L68.22,100.41L101.98,118.07L99.35,80" style="vector-effect: none; fill: none; stroke: rgb(255, 0, 0); stroke-opacity: 1; stroke-width: 2px; opacity: 1;"/></g><g class="points"/><g class="text"/></g><g class="trace scatter trace0a2736" style="stroke-miterlimit: 2; opacity: 0.25;"><g class="fills"/><g class="errorbars"/><g class="lines"><path class="js-line" d="M89.53,80L88.74,64.86L76.86,74.56L48.42,80L71.08,95.45L89.82,97.02L89.53,80" style="vector-effect: none; fill: none; stroke: rgb(255, 0, 0); stroke-opacity: 1; stroke-width: 2px; opacity: 1;"/></g><g class="points"/><g class="text"/></g><g class="trace scatter tracea7ca42" style="stroke-miterlimit: 2; opacity: 0.25;"><g class="fills"/><g class="errorbars"/><g class="lines"><path class="js-line" d="M89.95,80L92,59.22L71.51,65.3L44.23,80L70.3,96.8L94.47,105.06L89.95,80" style="vector-effect: none; fill: none; stroke: rgb(255, 0, 0); stroke-opacity: 1; stroke-width: 2px; opacity: 1;"/></g><g class="points"/><g class="text"/></g><g class="trace scatter tracef910d5" style="stroke-miterlimit: 2; opacity: 0.25;"><g class="fills"/><g class="errorbars"/><g class="lines"><path class="js-line" d="M102.31,80L99.59,46.08L60.41,46.07L34.17,80L69.37,98.4L99.58,113.92L102.31,80" style="vector-effect: none; fill: none; stroke: rgb(255, 0, 0); stroke-opacity: 1; stroke-width: 2px; opacity: 1;"/></g><g class="points"/><g class="text"/></g><g class="trace scatter tracebf3354" style="stroke-miterlimit: 2; opacity: 0.25;"><g class="fills"/><g class="errorbars"/><g class="lines"><path class="js-line" d="M94.89,80L93.64,56.38L73.49,68.73L41.11,80L70.03,97.27L92.09,100.93L94.89,80" style="vector-effect: none; fill: none; stroke: rgb(0, 0, 255); stroke-opacity: 1; stroke-width: 2px; opacity: 1;"/></g><g class="points"/><g class="text"/></g><g class="trace scatter traceb0c9a3" style="stroke-miterlimit: 2; opacity: 0.25;"><g class="fills"/><g class="errorbars"/><g class="lines"><path class="js-line" d="M86.63,80L88.64,65.03L76.06,73.18L53.86,80L72.71,92.62L88.73,95.12L86.63,80" style="vector-effect: none; fill: none; stroke: rgb(0, 0, 255); stroke-opacity: 1; stroke-width: 2px; opacity: 1;"/></g><g class="points"/><g class="text"/></g><g class="trace scatter traceaf9341" style="stroke-miterlimit: 2; opacity: 0.25;"><g class="fills"/><g class="errorbars"/><g class="lines"><path class="js-line" d="M91.67,80L89.45,63.63L73.95,69.52L46.46,80L72.4,93.16L88.15,94.12L91.67,80" style="vector-effect: none; fill: none; stroke: rgb(255, 0, 0); stroke-opacity: 1; stroke-width: 2px; opacity: 1;"/></g><g class="points"/><g class="text"/></g><g class="trace scatter trace87de30" style="stroke-miterlimit: 2; opacity: 0.25;"><g class="fills"/><g class="errorbars"/><g class="lines"><path class="js-line" d="M86.26,80L87.93,66.26L76.67,74.23L51.85,80L71.82,94.16L88.71,95.08L86.26,80" style="vector-effect: none; fill: none; stroke: rgb(255, 0, 0); stroke-opacity: 1; stroke-width: 2px; opacity: 1;"/></g><g class="points"/><g class="text"/></g><g class="trace scatter tracec752f9" style="stroke-miterlimit: 2; opacity: 0.25;"><g class="fills"/><g class="errorbars"/><g class="lines"><path class="js-line" d="M91.26,80L90.7,61.46L75.87,72.85L40.53,80L67.15,102.26L89.79,96.96L91.26,80" style="vector-effect: none; fill: none; stroke: rgb(255, 0, 0); stroke-opacity: 1; stroke-width: 2px; opacity: 1;"/></g><g class="points"/><g class="text"/></g><g class="trace scatter trace75bd7e" style="stroke-miterlimit: 2; opacity: 0.25;"><g class="fills"/><g class="errorbars"/><g class="lines"><path class="js-line" d="M88.02,80L95.98,52.32L59.99,45.35L47.74,80L70.6,96.28L102.74,119.39L88.02,80" style="vector-effect: none; fill: none; stroke: rgb(255, 0, 0); stroke-opacity: 1; stroke-width: 2px; opacity: 1;"/></g><g class="points"/><g class="text"/></g><g class="trace scatter tracef408cf" style="stroke-miterlimit: 2; opacity: 0.25;"><g class="fills"/><g class="errorbars"/><g class="lines"><path class="js-line" d="M99.22,80L100.01,45.34L65.33,54.59L33.33,80L68.29,100.29L98.71,112.41L99.22,80" style="vector-effect: none; fill: none; stroke: rgb(255, 0, 0); stroke-opacity: 1; stroke-width: 2px; opacity: 1;"/></g><g class="points"/><g class="text"/></g><g class="trace scatter trace5098f3" style="stroke-miterlimit: 2; opacity: 0.25;"><g class="fills"/><g class="errorbars"/><g class="lines"><path class="js-line" d="M96.17,80L97.24,50.13L64.75,53.58L37.64,80L69.08,98.91L98.79,112.55L96.17,80" style="vector-effect: none; fill: none; stroke: rgb(255, 0, 0); stroke-opacity: 1; stroke-width: 2px; opacity: 1;"/></g><g class="points"/><g class="text"/></g><g class="trace scatter trace1c8662" style="stroke-miterlimit: 2; opacity: 0.25;"><g class="fills"/><g class="errorbars"/><g class="lines"><path class="js-line" d="M103.84,80L103.74,38.89L57.89,41.7L29.6,80L65.59,104.96L108.42,129.23L103.84,80" style="vector-effect: none; fill: none; stroke: rgb(255, 0, 0); stroke-opacity: 1; stroke-width: 2px; opacity: 1;"/></g><g class="points"/><g class="text"/></g><g class="trace scatter trace17a2e7" style="stroke-miterlimit: 2; opacity: 0.25;"><g class="fills"/><g class="errorbars"/><g class="lines"><path class="js-line" d="M103.91,80L105.97,35.01L51.78,31.12L22.34,80L66.53,103.33L106.54,125.97L103.91,80" style="vector-effect: none; fill: none; stroke: rgb(255, 0, 0); stroke-opacity: 1; stroke-width: 2px; opacity: 1;"/></g><g class="points"/><g class="text"/></g><g class="trace scatter trace7f7e46" style="stroke-miterlimit: 2; opacity: 0.25;"><g class="fills"/><g class="errorbars"/><g class="lines"><path class="js-line" d="M118.18,80L114.5,20.24L40,10.72L13.84,80L66.36,103.63L111.74,134.98L118.18,80" style="vector-effect: none; fill: none; stroke: rgb(255, 0, 0); stroke-opacity: 1; stroke-width: 2px; opacity: 1;"/></g><g class="points"/><g class="text"/></g><g class="trace scatter trace4a593f" style="stroke-miterlimit: 2; opacity: 0.25;"><g class="fills"/><g class="errorbars"/><g class="lines"><path class="js-line" d="M90.82,80L88.42,65.42L75.88,72.86L35.84,80L70.71,96.08L87.74,93.4L90.82,80" style="vector-effect: none; fill: none; stroke: rgb(255, 0, 0); stroke-opacity: 1; stroke-width: 2px; opacity: 1;"/></g><g class="points"/><g class="text"/></g><g class="trace scatter tracee11930" style="stroke-miterlimit: 2; opacity: 0.25;"><g class="fills"/><g class="errorbars"/><g class="lines"><path class="js-line" d="M88.7,80L91.99,59.23L75.4,72.04L43.82,80L70.81,95.92L89.85,97.06L88.7,80" style="vector-effect: none; fill: none; stroke: rgb(255, 0, 0); stroke-opacity: 1; stroke-width: 2px; opacity: 1;"/></g><g class="points"/><g class="text"/></g><g class="trace scatter trace3ad312" style="stroke-miterlimit: 2; opacity: 0.25;"><g class="fills"/><g class="errorbars"/><g class="lines"><path class="js-line" d="M113.38,80L111.52,25.4L40.67,11.87L18.57,80L67.24,102.1L107.7,127.98L113.38,80" style="vector-effect: none; fill: none; stroke: rgb(255, 0, 0); stroke-opacity: 1; stroke-width: 2px; opacity: 1;"/></g><g class="points"/><g class="text"/></g><g class="trace scatter trace16d48f" style="stroke-miterlimit: 2; opacity: 0.25;"><g class="fills"/><g class="errorbars"/><g class="lines"><path class="js-line" d="M87.53,80L89.05,64.32L73.4,68.57L51.31,80L72.82,92.43L90.57,98.31L87.53,80" style="vector-effect: none; fill: none; stroke: rgb(255, 0, 0); stroke-opacity: 1; stroke-width: 2px; opacity: 1;"/></g><g class="points"/><g class="text"/></g><g class="trace scatter trace2528e4" style="stroke-miterlimit: 2; opacity: 0.25;"><g class="fills"/><g class="errorbars"/><g class="lines"><path class="js-line" d="M103.52,80L99.46,46.29L57.08,40.31L29.62,80L67.76,101.2L102.8,119.49L103.52,80" style="vector-effect: none; fill: none; stroke: rgb(255, 0, 0); stroke-opacity: 1; stroke-width: 2px; opacity: 1;"/></g><g class="points"/><g class="text"/></g><g class="trace scatter trace64c89f" style="stroke-miterlimit: 2; opacity: 0.25;"><g class="fills"/><g class="errorbars"/><g class="lines"><path class="js-line" d="M98.64,80L89.99,62.71L70.26,63.13L21.62,80L68.09,100.64L90.63,98.41L98.64,80" style="vector-effect: none; fill: none; stroke: rgb(255, 0, 0); stroke-opacity: 1; stroke-width: 2px; opacity: 1;"/></g><g class="points"/><g class="text"/></g><g class="trace scatter trace30d3eb" style="stroke-miterlimit: 2; opacity: 0.25;"><g class="fills"/><g class="errorbars"/><g class="lines"><path class="js-line" d="M93.28,80L91.2,60.6L74.61,70.66L32.18,80L68.7,99.57L94.43,104.99L93.28,80" style="vector-effect: none; fill: none; stroke: rgb(255, 0, 0); stroke-opacity: 1; stroke-width: 2px; opacity: 1;"/></g><g class="points"/><g class="text"/></g><g class="trace scatter traceeff0dc" style="stroke-miterlimit: 2; opacity: 0.25;"><g class="fills"/><g class="errorbars"/><g class="lines"><path class="js-line" d="M103.64,80L102.11,41.7L58.92,43.5L19.3,80L66.55,103.3L102.45,118.88L103.64,80" style="vector-effect: none; fill: none; stroke: rgb(0, 0, 255); stroke-opacity: 1; stroke-width: 2px; opacity: 1;"/></g><g class="points"/><g class="text"/></g><g class="trace scatter traceaab2ee" style="stroke-miterlimit: 2; opacity: 0.25;"><g class="fills"/><g class="errorbars"/><g class="lines"><path class="js-line" d="M91.15,80L91.03,60.9L70.94,64.3L51.87,80L73.92,90.52L90.33,97.88L91.15,80" style="vector-effect: none; fill: none; stroke: rgb(255, 0, 0); stroke-opacity: 1; stroke-width: 2px; opacity: 1;"/></g><g class="points"/><g class="text"/></g><g class="trace scatter trace8cf09f" style="stroke-miterlimit: 2; opacity: 0.25;"><g class="fills"/><g class="errorbars"/><g class="lines"><path class="js-line" d="M89.23,80L91.56,59.98L74.9,71.17L38.95,80L69.15,98.8L97.71,110.68L89.23,80" style="vector-effect: none; fill: none; stroke: rgb(255, 0, 0); stroke-opacity: 1; stroke-width: 2px; opacity: 1;"/></g><g class="points"/><g class="text"/></g><g class="trace scatter traceffb52a" style="stroke-miterlimit: 2; opacity: 0.25;"><g class="fills"/><g class="errorbars"/><g class="lines"><path class="js-line" d="M101.21,80L102.95,40.25L53.94,34.85L25.67,80L68.47,99.97L104,121.57L101.21,80" style="vector-effect: none; fill: none; stroke: rgb(255, 0, 0); stroke-opacity: 1; stroke-width: 2px; opacity: 1;"/></g><g class="points"/><g class="text"/></g><g class="trace scatter trace19bbbd" style="stroke-miterlimit: 2; opacity: 0.25;"><g class="fills"/><g class="errorbars"/><g class="lines"><path class="js-line" d="M86.79,80L88.43,65.4L72.69,67.34L57.96,80L72.09,93.7L94.84,105.7L86.79,80" style="vector-effect: none; fill: none; stroke: rgb(255, 0, 0); stroke-opacity: 1; stroke-width: 2px; opacity: 1;"/></g><g class="points"/><g class="text"/></g><g class="trace scatter tracef08fed" style="stroke-miterlimit: 2; opacity: 0.25;"><g class="fills"/><g class="errorbars"/><g class="lines"><path class="js-line" d="M94.1,80L98.52,47.91L59.53,44.55L30.86,80L68.13,100.56L102.38,118.76L94.1,80" style="vector-effect: none; fill: none; stroke: rgb(255, 0, 0); stroke-opacity: 1; stroke-width: 2px; opacity: 1;"/></g><g class="points"/><g class="text"/></g><g class="trace scatter trace41573b" style="stroke-miterlimit: 2; opacity: 0.25;"><g class="fills"/><g class="errorbars"/><g class="lines"><path class="js-line" d="M92.18,80L92.2,58.87L76.7,74.29L38.34,80L69.8,97.66L93.52,103.41L92.18,80" style="vector-effect: none; fill: none; stroke: rgb(255, 0, 0); stroke-opacity: 1; stroke-width: 2px; opacity: 1;"/></g><g class="points"/><g class="text"/></g></g></g><g class="polarsublayer angular-line"><path d="M80,0A80,80 0,1,0 -80,-9.797174393178826e-15A80,80 0,1,0 80,1.9594348786357652e-14Z" transform="translate(350,308)" stroke-width="1" style="fill: none; stroke: rgb(255, 255, 255); stroke-opacity: 1;"/></g><g class="polarsublayer radial-line"><line x1="0" y1="0" x2="80" y2="0" transform="translate(350,308)" stroke-width="1" style="fill: none; stroke: rgb(255, 255, 255); stroke-opacity: 1;"/></g><g class="polarsublayer angular-axis"><g class="angularaxistick"><text text-anchor="start" x="4.5" y="7" transform="translate(430,308)" style="font-family: sans-serif; font-size: 20px; fill: rgb(42, 63, 95); fill-opacity: 1; white-space: pre; opacity: 1;">menstrual irregularity</text></g><g class="angularaxistick"><text text-anchor="start" x="2.2500000000000004" y="-3.8612159321677275" transform="translate(390,238.71796769724492)" style="font-family: sans-serif; font-size: 20px; fill: rgb(42, 63, 95); fill-opacity: 1; white-space: pre; opacity: 1;">abdominal pain</text></g><g class="angularaxistick"><text text-anchor="end" x="-2.249999999999999" y="-3.861215932167731" transform="translate(310,238.7179676972449)" style="font-family: sans-serif; font-size: 20px; fill: rgb(42, 63, 95); fill-opacity: 1; white-space: pre; opacity: 1;">diarrhea</text></g><g class="angularaxistick"><text text-anchor="end" x="-4.5" y="6.999999999999999" transform="translate(270,308)" style="font-family: sans-serif; font-size: 20px; fill: rgb(42, 63, 95); fill-opacity: 1; white-space: pre; opacity: 1;">muscle pain or cramps</text></g><g class="angularaxistick"><text text-anchor="end" x="-2.2500000000000018" y="24.717622392718745" transform="translate(309.99999999999994,377.28203230275506)" style="font-family: sans-serif; font-size: 20px; fill: rgb(42, 63, 95); fill-opacity: 1; white-space: pre; opacity: 1;">unexplained hair loss</text></g><g class="angularaxistick"><text text-anchor="start" x="2.2500000000000004" y="24.717622392718745" transform="translate(390,377.28203230275506)" style="font-family: sans-serif; font-size: 20px; fill: rgb(42, 63, 95); fill-opacity: 1; white-space: pre; opacity: 1;">bloating</text></g></g><g class="polarsublayer radial-axis" display="none"/></g></g><g class="smithlayer"/><g class="ternarylayer"/><g class="geolayer"/><g class="funnelarealayer"/><g class="pielayer"/><g class="iciclelayer"/><g class="treemaplayer"/><g class="sunburstlayer"/><g class="glimages"/><defs id="topdefs-a3fc29"><g class="clips"/></defs><g class="layer-above"><g class="imagelayer"/><g class="shapelayer"/></g><g class="infolayer"><g class="g-gtitle"><text class="gtitle" x="350" y="185" text-anchor="middle" dy="0.7em" style="opacity: 1; font-family: sans-serif; font-size: 25px; fill: rgb(42, 63, 95); fill-opacity: 1; white-space: pre;">Cluster6: 35 patients</text></g><g class="g-polartitle"/></g></svg>