<svg class="main-svg" xmlns="http://www.w3.org/2000/svg" xmlns:xlink="http://www.w3.org/1999/xlink" width="700" height="500" style="" viewBox="0 0 700 500"><rect x="0" y="0" width="700" height="500" style="fill: rgb(255, 255, 255); fill-opacity: 1;"/><defs id="defs-b4d12d"><g class="clips"><clipPath id="clipb4d12dpolar-for-traces"><path d="M80,0A80,80 0,1,0 -80,-9.797174393178826e-15A80,80 0,1,0 80,1.9594348786357652e-14Z" transform="translate(80,80)"/></clipPath></g><g class="gradients"/><g class="patterns"/></defs><g class="bglayer"/><g class="layer-below"><g class="imagelayer"/><g class="shapelayer"/></g><g class="cartesianlayer"/><g class="polarlayer"><g class="polar"><g class="polarsublayer draglayer"/><g class="polarsublayer plotbg"><path d="M80,0A80,80 0,1,0 -80,-9.797174393178826e-15A80,80 0,1,0 80,1.9594348786357652e-14Z" transform="translate(350,308)" style="fill: rgb(229, 236, 246); fill-opacity: 1;"/></g><g class="polarsublayer backplot"><g class="maplayer"/></g><g class="polarsublayer angular-grid" style="fill: none;"><path class="angularaxisgrid" d="M350,308L430,308" style="stroke: rgb(255, 255, 255); stroke-opacity: 1; stroke-width: 1px;"/><path class="angularaxisgrid" d="M350,308L390,238.71796769724492" style="stroke: rgb(255, 255, 255); stroke-opacity: 1; stroke-width: 1px;"/><path class="angularaxisgrid" d="M350,308L310,238.7179676972449" style="stroke: rgb(255, 255, 255); stroke-opacity: 1; stroke-width: 1px;"/><path class="angularaxisgrid" d="M350,308L270,308" style="stroke: rgb(255, 255, 255); stroke-opacity: 1; stroke-width: 1px;"/><path class="angularaxisgrid" d="M350,308L309.99999999999994,377.28203230275506" style="stroke: rgb(255, 255, 255); stroke-opacity: 1; stroke-width: 1px;"/><path class="angularaxisgrid" d="M350,308L390,377.28203230275506" style="stroke: rgb(255, 255, 255); stroke-opacity: 1; stroke-width: 1px;"/></g><g class="polarsublayer radial-grid" transform="translate(350,308)" style="fill: none;"><path class="xgrid" d="M12.98,0A12.98,12.98 0,1,0 -12.98,-1.5895915452932645e-15A12.98,12.98 0,1,0 12.98,3.179183090586529e-15Z" style="stroke: rgb(255, 255, 255); stroke-opacity: 1; stroke-width: 1px;"/><path class="xgrid" d="M25.95,0A25.95,25.95 0,1,0 -25.95,-3.1779584437873815e-15A25.95,25.95 0,1,0 25.95,6.355916887574763e-15Z" style="stroke: rgb(255, 255, 255); stroke-opacity: 1; stroke-width: 1px;"/><path class="xgrid" d="M38.93,0A38.93,38.93 0,1,0 -38.93,-4.767549989080646e-15A38.93,38.93 0,1,0 38.93,9.535099978161291e-15Z" style="stroke: rgb(255, 255, 255); stroke-opacity: 1; stroke-width: 1px;"/><path class="xgrid" d="M51.9,0A51.9,51.9 0,1,0 -51.9,-6.355916887574763e-15A51.9,51.9 0,1,0 51.9,1.2711833775149526e-14Z" style="stroke: rgb(255, 255, 255); stroke-opacity: 1; stroke-width: 1px;"/><path class="xgrid" d="M64.88,0A64.88,64.88 0,1,0 -64.88,-7.945508432868026e-15A64.88,64.88 0,1,0 64.88,1.5891016865736053e-14Z" style="stroke: rgb(255, 255, 255); stroke-opacity: 1; stroke-width: 1px;"/><path class="xgrid" d="M77.85,0A77.85,77.85 0,1,0 -77.85,-9.533875331362145e-15A77.85,77.85 0,1,0 77.85,1.906775066272429e-14Z" style="stroke: rgb(255, 255, 255); stroke-opacity: 1; stroke-width: 1px;"/></g><g class="polarsublayer frontplot" transform="translate(270,228)" clip-path="url(#clipb4d12dpolar-for-traces)"><g class="barlayer"/><g class="scatterlayer"><g class="trace scatter traceb2d2fe" style="stroke-miterlimit: 2; opacity: 0.25;"><g class="fills"/><g class="errorbars"/><g class="lines"><path class="js-line" d="M91.82,80L90.77,61.34L74.43,70.35L56.33,80L70.85,95.85L100.3,115.15L91.82,80" style="vector-effect: none; fill: none; stroke: rgb(255, 0, 0); stroke-opacity: 1; stroke-width: 2px; opacity: 1;"/></g><g class="points"/><g class="text"/></g><g class="trace scatter tracecefa05" style="stroke-miterlimit: 2; opacity: 0.25;"><g class="fills"/><g class="errorbars"/><g class="lines"><path class="js-line" d="M94.46,80L94.08,55.61L72.61,67.2L42.57,80L69.55,98.1L111.81,135.1L94.46,80" style="vector-effect: none; fill: none; stroke: rgb(255, 0, 0); stroke-opacity: 1; stroke-width: 2px; opacity: 1;"/></g><g class="points"/><g class="text"/></g><g class="trace scatter traced65ec7" style="stroke-miterlimit: 2; opacity: 0.25;"><g class="fills"/><g class="errorbars"/><g class="lines"><path class="js-line" d="M109.97,80L101.27,43.16L69.07,61.06L21.77,80L62.26,110.72L120,149.28L109.97,80" style="vector-effect: none; fill: none; stroke: rgb(255, 0, 0); stroke-opacity: 1; stroke-width: 2px; opacity: 1;"/></g><g class="points"/><g class="text"/></g><g class="trace scatter trace2c9000" style="stroke-miterlimit: 2; opacity: 0.25;"><g class="fills"/><g class="errorbars"/><g class="lines"><path class="js-line" d="M102.27,80L93.83,56.04L73.26,68.33L39.89,80L68.71,99.55L105.45,124.07L102.27,80" style="vector-effect: none; fill: none; stroke: rgb(255, 0, 0); stroke-opacity: 1; stroke-width: 2px; opacity: 1;"/></g><g class="points"/><g class="text"/></g><g class="trace scatter tracea21a1e" style="stroke-miterlimit: 2; opacity: 0.25;"><g class="fills"/><g class="errorbars"/><g class="lines"><path class="js-line" d="M95.03,80L93.62,56.41L73.08,68.02L51.12,80L69.2,98.7L105.85,124.77L95.03,80" style="vector-effect: none; fill: none; stroke: rgb(255, 0, 0); stroke-opacity: 1; stroke-width: 2px; opacity: 1;"/></g><g class="points"/><g class="text"/></g><g class="trace scatter tracec6bce7" style="stroke-miterlimit: 2; opacity: 0.25;"><g class="fills"/><g class="errorbars"/><g class="lines"><path class="js-line" d="M97.49,80L98.61,47.77L71.12,64.62L40.93,80L65.13,105.76L111.89,135.23L97.49,80" style="vector-effect: none; fill: none; stroke: rgb(255, 0, 0); stroke-opacity: 1; stroke-width: 2px; opacity: 1;"/></g><g class="points"/><g class="text"/></g><g class="trace scatter tracedd91dd" style="stroke-miterlimit: 2; opacity: 0.25;"><g class="fills"/><g class="errorbars"/><g class="lines"><path class="js-line" d="M91.65,80L90.84,61.22L74.18,69.92L56.6,80L70.35,96.71L103.11,120.03L91.65,80" style="vector-effect: none; fill: none; stroke: rgb(255, 0, 0); stroke-opacity: 1; stroke-width: 2px; opacity: 1;"/></g><g class="points"/><g class="text"/></g><g class="trace scatter trace98950d" style="stroke-miterlimit: 2; opacity: 0.25;"><g class="fills"/><g class="errorbars"/><g class="lines"><path class="js-line" d="M93.97,80L91,60.96L72.99,67.86L52.73,80L70.64,96.22L103.96,121.49L93.97,80" style="vector-effect: none; fill: none; stroke: rgb(0, 0, 255); stroke-opacity: 1; stroke-width: 2px; opacity: 1;"/></g><g class="points"/><g class="text"/></g><g class="trace scatter tracea0a4b9" style="stroke-miterlimit: 2; opacity: 0.25;"><g class="fills"/><g class="errorbars"/><g class="lines"><path class="js-line" d="M100.07,80L96.52,51.38L71.16,64.69L40.21,80L65.66,104.84L111.37,134.34L100.07,80" style="vector-effect: none; fill: none; stroke: rgb(255, 0, 0); stroke-opacity: 1; stroke-width: 2px; opacity: 1;"/></g><g class="points"/><g class="text"/></g><g class="trace scatter tracea2176c" style="stroke-miterlimit: 2; opacity: 0.25;"><g class="fills"/><g class="errorbars"/><g class="lines"><path class="js-line" d="M93.66,80L92.62,58.14L71.38,65.07L49.61,80L67.81,101.11L115.46,141.41L93.66,80" style="vector-effect: none; fill: none; stroke: rgb(255, 0, 0); stroke-opacity: 1; stroke-width: 2px; opacity: 1;"/></g><g class="points"/><g class="text"/></g><g class="trace scatter traceb1c665" style="stroke-miterlimit: 2; opacity: 0.25;"><g class="fills"/><g class="errorbars"/><g class="lines"><path class="js-line" d="M100.96,80L98.64,47.72L69.86,62.43L31.61,80L63.01,109.42L115.26,141.07L100.96,80" style="vector-effect: none; fill: none; stroke: rgb(255, 0, 0); stroke-opacity: 1; stroke-width: 2px; opacity: 1;"/></g><g class="points"/><g class="text"/></g><g class="trace scatter trace2fdb13" style="stroke-miterlimit: 2; opacity: 0.25;"><g class="fills"/><g class="errorbars"/><g class="lines"><path class="js-line" d="M98.5,80L98.77,47.5L69.9,62.51L33.83,80L66.51,103.37L113.33,137.73L98.5,80" style="vector-effect: none; fill: none; stroke: rgb(255, 0, 0); stroke-opacity: 1; stroke-width: 2px; opacity: 1;"/></g><g class="points"/><g class="text"/></g><g class="trace scatter trace7bf8ff" style="stroke-miterlimit: 2; opacity: 0.25;"><g class="fills"/><g class="errorbars"/><g class="lines"><path class="js-line" d="M100.52,80L97.25,50.12L70.89,64.22L36.91,80L61.83,111.48L112.11,135.61L100.52,80" style="vector-effect: none; fill: none; stroke: rgb(255, 0, 0); stroke-opacity: 1; stroke-width: 2px; opacity: 1;"/></g><g class="points"/><g class="text"/></g><g class="trace scatter trace05346f" style="stroke-miterlimit: 2; opacity: 0.25;"><g class="fills"/><g class="errorbars"/><g class="lines"><path class="js-line" d="M102.45,80L96.08,52.15L71.84,65.86L36.77,80L65.43,105.24L108.81,129.9L102.45,80" style="vector-effect: none; fill: none; stroke: rgb(50, 50, 50); stroke-opacity: 1; stroke-width: 2px; opacity: 1;"/></g><g class="points"/><g class="text"/></g><g class="trace scatter trace413698" style="stroke-miterlimit: 2; opacity: 0.25;"><g class="fills"/><g class="errorbars"/><g class="lines"><path class="js-line" d="M101.14,80L98.18,48.5L69.97,62.63L29.59,80L63.03,109.38L117.87,145.59L101.14,80" style="vector-effect: none; fill: none; stroke: rgb(255, 0, 0); stroke-opacity: 1; stroke-width: 2px; opacity: 1;"/></g><g class="points"/><g class="text"/></g><g class="trace scatter traceced010" style="stroke-miterlimit: 2; opacity: 0.25;"><g class="fills"/><g class="errorbars"/><g class="lines"><path class="js-line" d="M103.88,80L96.78,50.93L72.4,66.84L31.48,80L66.7,103.04L109.56,131.2L103.88,80" style="vector-effect: none; fill: none; stroke: rgb(255, 0, 0); stroke-opacity: 1; stroke-width: 2px; opacity: 1;"/></g><g class="points"/><g class="text"/></g><g class="trace scatter tracea7ffb9" style="stroke-miterlimit: 2; opacity: 0.25;"><g class="fills"/><g class="errorbars"/><g class="lines"><path class="js-line" d="M95.17,80L94.65,54.62L73.15,68.13L50.38,80L69.87,97.55L104.92,123.16L95.17,80" style="vector-effect: none; fill: none; stroke: rgb(255, 0, 0); stroke-opacity: 1; stroke-width: 2px; opacity: 1;"/></g><g class="points"/><g class="text"/></g></g></g><g class="polarsublayer angular-line"><path d="M80,0A80,80 0,1,0 -80,-9.797174393178826e-15A80,80 0,1,0 80,1.9594348786357652e-14Z" transform="translate(350,308)" stroke-width="1" style="fill: none; stroke: rgb(255, 255, 255); stroke-opacity: 1;"/></g><g class="polarsublayer radial-line"><line x1="0" y1="0" x2="80" y2="0" transform="translate(350,308)" stroke-width="1" style="fill: none; stroke: rgb(255, 255, 255); stroke-opacity: 1;"/></g><g class="polarsublayer angular-axis"><g class="angularaxistick"><text text-anchor="start" x="4.5" y="7" transform="translate(430,308)" style="font-family: sans-serif; font-size: 20px; fill: rgb(42, 63, 95); fill-opacity: 1; white-space: pre; opacity: 1;">menstrual irregularity</text></g><g class="angularaxistick"><text text-anchor="start" x="2.2500000000000004" y="-3.8612159321677275" transform="translate(390,238.71796769724492)" style="font-family: sans-serif; font-size: 20px; fill: rgb(42, 63, 95); fill-opacity: 1; white-space: pre; opacity: 1;">tingling and numbness in face</text></g><g class="angularaxistick"><text text-anchor="end" x="-2.249999999999999" y="-3.861215932167731" transform="translate(310,238.7179676972449)" style="font-family: sans-serif; font-size: 20px; fill: rgb(42, 63, 95); fill-opacity: 1; white-space: pre; opacity: 1;">urinary incontinence</text></g><g class="angularaxistick"><text text-anchor="end" x="-4.5" y="6.999999999999999" transform="translate(270,308)" style="font-family: sans-serif; font-size: 20px; fill: rgb(42, 63, 95); fill-opacity: 1; white-space: pre; opacity: 1;">abdominal pain</text></g><g class="angularaxistick"><text text-anchor="end" x="-2.2500000000000018" y="24.717622392718745" transform="translate(309.99999999999994,377.28203230275506)" style="font-family: sans-serif; font-size: 20px; fill: rgb(42, 63, 95); fill-opacity: 1; white-space: pre; opacity: 1;">fever or chills</text></g><g class="angularaxistick"><text text-anchor="start" x="2.2500000000000004" y="24.717622392718745" transform="translate(390,377.28203230275506)" style="font-family: sans-serif; font-size: 20px; fill: rgb(42, 63, 95); fill-opacity: 1; white-space: pre; opacity: 1;">tingling</text></g></g><g class="polarsublayer radial-axis" display="none"/></g></g><g class="smithlayer"/><g class="ternarylayer"/><g class="geolayer"/><g class="funnelarealayer"/><g class="pielayer"/><g class="iciclelayer"/><g class="treemaplayer"/><g class="sunburstlayer"/><g class="glimages"/><defs id="topdefs-b4d12d"><g class="clips"/></defs><g class="layer-above"><g class="imagelayer"/><g class="shapelayer"/></g><g class="infolayer"><g class="g-gtitle"><text class="gtitle" x="350" y="185" text-anchor="middle" dy="0.7em" style="opacity: 1; font-family: sans-serif; font-size: 25px; fill: rgb(42, 63, 95); fill-opacity: 1; white-space: pre;">Cluster14: 17 patients</text></g><g class="g-polartitle"/></g></svg>