<svg class="main-svg" xmlns="http://www.w3.org/2000/svg" xmlns:xlink="http://www.w3.org/1999/xlink" width="700" height="500" style="" viewBox="0 0 700 500"><rect x="0" y="0" width="700" height="500" style="fill: rgb(255, 255, 255); fill-opacity: 1;"/><defs id="defs-1f59e4"><g class="clips"><clipPath id="clip1f59e4polar-for-traces"><path d="M80,0A80,80 0,1,0 -80,-9.797174393178826e-15A80,80 0,1,0 80,1.9594348786357652e-14Z" transform="translate(80,80)"/></clipPath></g><g class="gradients"/><g class="patterns"/></defs><g class="bglayer"/><g class="layer-below"><g class="imagelayer"/><g class="shapelayer"/></g><g class="cartesianlayer"/><g class="polarlayer"><g class="polar"><g class="polarsublayer draglayer"/><g class="polarsublayer plotbg"><path d="M80,0A80,80 0,1,0 -80,-9.797174393178826e-15A80,80 0,1,0 80,1.9594348786357652e-14Z" transform="translate(350,308)" style="fill: rgb(229, 236, 246); fill-opacity: 1;"/></g><g class="polarsublayer backplot"><g class="maplayer"/></g><g class="polarsublayer angular-grid" style="fill: none;"><path class="angularaxisgrid" d="M350,308L430,308" style="stroke: rgb(255, 255, 255); stroke-opacity: 1; stroke-width: 1px;"/><path class="angularaxisgrid" d="M350,308L390,238.71796769724492" style="stroke: rgb(255, 255, 255); stroke-opacity: 1; stroke-width: 1px;"/><path class="angularaxisgrid" d="M350,308L310,238.7179676972449" style="stroke: rgb(255, 255, 255); stroke-opacity: 1; stroke-width: 1px;"/><path class="angularaxisgrid" d="M350,308L270,308" style="stroke: rgb(255, 255, 255); stroke-opacity: 1; stroke-width: 1px;"/><path class="angularaxisgrid" d="M350,308L309.99999999999994,377.28203230275506" style="stroke: rgb(255, 255, 255); stroke-opacity: 1; stroke-width: 1px;"/><path class="angularaxisgrid" d="M350,308L390,377.28203230275506" style="stroke: rgb(255, 255, 255); stroke-opacity: 1; stroke-width: 1px;"/></g><g class="polarsublayer radial-grid" transform="translate(350,308)" style="fill: none;"><path class="xgrid" d="M14.06,0A14.06,14.06 0,1,0 -14.06,-1.7218533996011787e-15A14.06,14.06 0,1,0 14.06,3.4437067992023574e-15Z" style="stroke: rgb(255, 255, 255); stroke-opacity: 1; stroke-width: 1px;"/><path class="xgrid" d="M28.12,0A28.12,28.12 0,1,0 -28.12,-3.4437067992023574e-15A28.12,28.12 0,1,0 28.12,6.887413598404715e-15Z" style="stroke: rgb(255, 255, 255); stroke-opacity: 1; stroke-width: 1px;"/><path class="xgrid" d="M42.18,0A42.18,42.18 0,1,0 -42.18,-5.165560198803536e-15A42.18,42.18 0,1,0 42.18,1.0331120397607071e-14Z" style="stroke: rgb(255, 255, 255); stroke-opacity: 1; stroke-width: 1px;"/><path class="xgrid" d="M56.24,0A56.24,56.24 0,1,0 -56.24,-6.887413598404715e-15A56.24,56.24 0,1,0 56.24,1.377482719680943e-14Z" style="stroke: rgb(255, 255, 255); stroke-opacity: 1; stroke-width: 1px;"/><path class="xgrid" d="M70.3,0A70.3,70.3 0,1,0 -70.3,-8.609266998005892e-15A70.3,70.3 0,1,0 70.3,1.7218533996011785e-14Z" style="stroke: rgb(255, 255, 255); stroke-opacity: 1; stroke-width: 1px;"/></g><g class="polarsublayer frontplot" transform="translate(270,228)" clip-path="url(#clip1f59e4polar-for-traces)"><g class="barlayer"/><g class="scatterlayer"><g class="trace scatter trace07846a" style="stroke-miterlimit: 2; opacity: 1;"><g class="fills"/><g class="errorbars"/><g class="lines"><path class="js-line" d="M116.27,80L95.32,53.46L57.64,41.28L0,80L56.49,120.72L104.26,122.02L116.27,80" style="vector-effect: none; fill: none; stroke: rgb(255, 0, 0); stroke-opacity: 0.25; stroke-width: 2px; opacity: 1;"/></g><g class="points"/><g class="text"/></g><g class="trace scatter trace68b16a" style="stroke-miterlimit: 2; opacity: 1;"><g class="fills"/><g class="errorbars"/><g class="lines"><path class="js-line" d="M110.71,80L94.18,55.44L58.18,42.21L12.87,80L57.46,119.04L101.22,116.75L110.71,80" style="vector-effect: none; fill: none; stroke: rgb(0, 0, 255); stroke-opacity: 0.25; stroke-width: 2px; opacity: 1;"/></g><g class="points"/><g class="text"/></g><g class="trace scatter traceb2703b" style="stroke-miterlimit: 2; opacity: 1;"><g class="fills"/><g class="errorbars"/><g class="lines"><path class="js-line" d="M100.84,80L88.15,65.89L65.57,55.01L21.05,80L64.76,106.4L98.2,111.52L100.84,80" style="vector-effect: none; fill: none; stroke: rgb(255, 0, 0); stroke-opacity: 0.25; stroke-dasharray: 9px, 9px; stroke-width: 2px; opacity: 1;"/></g><g class="points"/><g class="text"/></g><g class="trace scatter trace2c11c3" style="stroke-miterlimit: 2; opacity: 1;"><g class="fills"/><g class="errorbars"/><g class="lines"><path class="js-line" d="M92.13,80L84.36,72.45L72.35,66.76L36.84,80L69.46,98.26L91.25,99.48L92.13,80" style="vector-effect: none; fill: none; stroke: rgb(0, 0, 255); stroke-opacity: 0.25; stroke-dasharray: 9px, 9px; stroke-width: 2px; opacity: 1;"/></g><g class="points"/><g class="text"/></g></g></g><g class="polarsublayer angular-line"><path d="M80,0A80,80 0,1,0 -80,-9.797174393178826e-15A80,80 0,1,0 80,1.9594348786357652e-14Z" transform="translate(350,308)" stroke-width="1" style="fill: none; stroke: rgb(255, 255, 255); stroke-opacity: 1;"/></g><g class="polarsublayer radial-line"><line x1="0" y1="0" x2="80" y2="0" transform="translate(350,308)" stroke-width="1" style="fill: none; stroke: rgb(255, 255, 255); stroke-opacity: 1;"/></g><g class="polarsublayer angular-axis"><g class="angularaxistick"><text text-anchor="start" x="4.5" y="7" transform="translate(430,308)" style="font-family: sans-serif; font-size: 20px; fill: rgb(42, 63, 95); fill-opacity: 1; white-space: pre; opacity: 1;">muscle pain or cramps</text></g><g class="angularaxistick"><text text-anchor="start" x="2.2500000000000004" y="-3.8612159321677275" transform="translate(390,238.71796769724492)" style="font-family: sans-serif; font-size: 20px; fill: rgb(42, 63, 95); fill-opacity: 1; white-space: pre; opacity: 1;">joint pain or swelling</text></g><g class="angularaxistick"><text text-anchor="end" x="-2.249999999999999" y="-3.861215932167731" transform="translate(310,238.7179676972449)" style="font-family: sans-serif; font-size: 20px; fill: rgb(42, 63, 95); fill-opacity: 1; white-space: pre; opacity: 1;">general/muscle weakness</text></g><g class="angularaxistick"><text text-anchor="end" x="-4.5" y="6.999999999999999" transform="translate(270,308)" style="font-family: sans-serif; font-size: 20px; fill: rgb(42, 63, 95); fill-opacity: 1; white-space: pre; opacity: 1;">fatigue or tiredness</text></g><g class="angularaxistick"><text text-anchor="end" x="-2.2500000000000018" y="24.717622392718745" transform="translate(309.99999999999994,377.28203230275506)" style="font-family: sans-serif; font-size: 20px; fill: rgb(42, 63, 95); fill-opacity: 1; white-space: pre; opacity: 1;">dizziness or lightheadedness</text></g><g class="angularaxistick"><text text-anchor="start" x="2.2500000000000004" y="24.717622392718745" transform="translate(390,377.28203230275506)" style="font-family: sans-serif; font-size: 20px; fill: rgb(42, 63, 95); fill-opacity: 1; white-space: pre; opacity: 1;">difficulty sleeping</text></g></g><g class="polarsublayer radial-axis" display="none"/></g></g><g class="smithlayer"/><g class="ternarylayer"/><g class="geolayer"/><g class="funnelarealayer"/><g class="pielayer"/><g class="iciclelayer"/><g class="treemaplayer"/><g class="sunburstlayer"/><g class="glimages"/><defs id="topdefs-1f59e4"><g class="clips"/></defs><g class="layer-above"><g class="imagelayer"/><g class="shapelayer"/></g><g class="infolayer"><g class="g-gtitle"><text class="gtitle" x="350" y="185" text-anchor="middle" dy="0.7em" style="opacity: 1; font-family: sans-serif; font-size: 25px; fill: rgb(42, 63, 95); fill-opacity: 1; white-space: pre;">Cluster2</text></g><g class="g-polartitle"/></g></svg>