<svg class="main-svg" xmlns="http://www.w3.org/2000/svg" xmlns:xlink="http://www.w3.org/1999/xlink" width="700" height="500" style="" viewBox="0 0 700 500"><rect x="0" y="0" width="700" height="500" style="fill: rgb(255, 255, 255); fill-opacity: 1;"/><defs id="defs-088bf8"><g class="clips"><clipPath id="clip088bf8polar-for-traces"><path d="M80,0A80,80 0,1,0 -80,-9.797174393178826e-15A80,80 0,1,0 80,1.9594348786357652e-14Z" transform="translate(80,80)"/></clipPath></g><g class="gradients"/><g class="patterns"/></defs><g class="bglayer"/><g class="layer-below"><g class="imagelayer"/><g class="shapelayer"/></g><g class="cartesianlayer"/><g class="polarlayer"><g class="polar"><g class="polarsublayer draglayer"/><g class="polarsublayer plotbg"><path d="M80,0A80,80 0,1,0 -80,-9.797174393178826e-15A80,80 0,1,0 80,1.9594348786357652e-14Z" transform="translate(350,308)" style="fill: rgb(229, 236, 246); fill-opacity: 1;"/></g><g class="polarsublayer backplot"><g class="maplayer"/></g><g class="polarsublayer angular-grid" style="fill: none;"><path class="angularaxisgrid" d="M350,308L430,308" style="stroke: rgb(255, 255, 255); stroke-opacity: 1; stroke-width: 1px;"/><path class="angularaxisgrid" d="M350,308L390,238.71796769724492" style="stroke: rgb(255, 255, 255); stroke-opacity: 1; stroke-width: 1px;"/><path class="angularaxisgrid" d="M350,308L310,238.7179676972449" style="stroke: rgb(255, 255, 255); stroke-opacity: 1; stroke-width: 1px;"/><path class="angularaxisgrid" d="M350,308L270,308" style="stroke: rgb(255, 255, 255); stroke-opacity: 1; stroke-width: 1px;"/><path class="angularaxisgrid" d="M350,308L309.99999999999994,377.28203230275506" style="stroke: rgb(255, 255, 255); stroke-opacity: 1; stroke-width: 1px;"/><path class="angularaxisgrid" d="M350,308L390,377.28203230275506" style="stroke: rgb(255, 255, 255); stroke-opacity: 1; stroke-width: 1px;"/></g><g class="polarsublayer radial-grid" transform="translate(350,308)" style="fill: none;"><path class="xgrid" d="M8.07,0A8.07,8.07 0,1,0 -8.07,-9.88289966911914e-16A8.07,8.07 0,1,0 8.07,1.976579933823828e-15Z" style="stroke: rgb(255, 255, 255); stroke-opacity: 1; stroke-width: 1px;"/><path class="xgrid" d="M16.15,0A16.15,16.15 0,1,0 -16.15,-1.977804580622975e-15A16.15,16.15 0,1,0 16.15,3.95560916124595e-15Z" style="stroke: rgb(255, 255, 255); stroke-opacity: 1; stroke-width: 1px;"/><path class="xgrid" d="M24.22,0A24.22,24.22 0,1,0 -24.22,-2.9660945475348894e-15A24.22,24.22 0,1,0 24.22,5.932189095069779e-15Z" style="stroke: rgb(255, 255, 255); stroke-opacity: 1; stroke-width: 1px;"/><path class="xgrid" d="M32.3,0A32.3,32.3 0,1,0 -32.3,-3.95560916124595e-15A32.3,32.3 0,1,0 32.3,7.9112183224919e-15Z" style="stroke: rgb(255, 255, 255); stroke-opacity: 1; stroke-width: 1px;"/><path class="xgrid" d="M40.37,0A40.37,40.37 0,1,0 -40.37,-4.9438991281578645e-15A40.37,40.37 0,1,0 40.37,9.887798256315729e-15Z" style="stroke: rgb(255, 255, 255); stroke-opacity: 1; stroke-width: 1px;"/><path class="xgrid" d="M48.45,0A48.45,48.45 0,1,0 -48.45,-5.933413741868926e-15A48.45,48.45 0,1,0 48.45,1.1866827483737853e-14Z" style="stroke: rgb(255, 255, 255); stroke-opacity: 1; stroke-width: 1px;"/><path class="xgrid" d="M56.52,0A56.52,56.52 0,1,0 -56.52,-6.9217037087808405e-15A56.52,56.52 0,1,0 56.52,1.3843407417561681e-14Z" style="stroke: rgb(255, 255, 255); stroke-opacity: 1; stroke-width: 1px;"/><path class="xgrid" d="M64.6,0A64.6,64.6 0,1,0 -64.6,-7.9112183224919e-15A64.6,64.6 0,1,0 64.6,1.58224366449838e-14Z" style="stroke: rgb(255, 255, 255); stroke-opacity: 1; stroke-width: 1px;"/><path class="xgrid" d="M72.67,0A72.67,72.67 0,1,0 -72.67,-8.899508289403816e-15A72.67,72.67 0,1,0 72.67,1.779901657880763e-14Z" style="stroke: rgb(255, 255, 255); stroke-opacity: 1; stroke-width: 1px;"/></g><g class="polarsublayer frontplot" transform="translate(270,228)" clip-path="url(#clip088bf8polar-for-traces)"><g class="barlayer"/><g class="scatterlayer"><g class="trace scatter trace15b46e" style="stroke-miterlimit: 2; opacity: 1;"><g class="fills"/><g class="errorbars"/><g class="lines"><path class="js-line" d="M107.05,80L112.68,23.4L66.49,56.6L26.67,80L40.85,147.81L114.89,140.43L107.05,80" style="vector-effect: none; fill: none; stroke: rgb(255, 0, 0); stroke-opacity: 0.25; stroke-width: 2px; opacity: 1;"/></g><g class="points"/><g class="text"/></g><g class="trace scatter trace1a123a" style="stroke-miterlimit: 2; opacity: 1;"><g class="fills"/><g class="errorbars"/><g class="lines"><path class="js-line" d="M112.64,80L109.96,28.11L68.26,59.67L28.16,80L41.87,146.04L120,149.28L112.64,80" style="vector-effect: none; fill: none; stroke: rgb(0, 0, 255); stroke-opacity: 0.25; stroke-width: 2px; opacity: 1;"/></g><g class="points"/><g class="text"/></g><g class="trace scatter traceb73661" style="stroke-miterlimit: 2; opacity: 1;"><g class="fills"/><g class="errorbars"/><g class="lines"><path class="js-line" d="M86.24,80L107.65,32.12L71.66,65.55L36.59,80L44.66,141.21L113.41,137.88L86.24,80" style="vector-effect: none; fill: none; stroke: rgb(255, 0, 0); stroke-opacity: 0.25; stroke-dasharray: 9px, 9px; stroke-width: 2px; opacity: 1;"/></g><g class="points"/><g class="text"/></g><g class="trace scatter traceb7d5d5" style="stroke-miterlimit: 2; opacity: 1;"><g class="fills"/><g class="errorbars"/><g class="lines"><path class="js-line" d="M84.52,80L99.56,46.12L74.47,70.42L48.73,80L53.96,125.11L105.72,124.54L84.52,80" style="vector-effect: none; fill: none; stroke: rgb(0, 0, 255); stroke-opacity: 0.25; stroke-dasharray: 9px, 9px; stroke-width: 2px; opacity: 1;"/></g><g class="points"/><g class="text"/></g></g></g><g class="polarsublayer angular-line"><path d="M80,0A80,80 0,1,0 -80,-9.797174393178826e-15A80,80 0,1,0 80,1.9594348786357652e-14Z" transform="translate(350,308)" stroke-width="1" style="fill: none; stroke: rgb(255, 255, 255); stroke-opacity: 1;"/></g><g class="polarsublayer radial-line"><line x1="0" y1="0" x2="80" y2="0" transform="translate(350,308)" stroke-width="1" style="fill: none; stroke: rgb(255, 255, 255); stroke-opacity: 1;"/></g><g class="polarsublayer angular-axis"><g class="angularaxistick"><text text-anchor="start" x="4.5" y="7" transform="translate(430,308)" style="font-family: sans-serif; font-size: 20px; fill: rgb(42, 63, 95); fill-opacity: 1; white-space: pre; opacity: 1;">worse hangover from alcohol</text></g><g class="angularaxistick"><text text-anchor="start" x="2.2500000000000004" y="-3.8612159321677275" transform="translate(390,238.71796769724492)" style="font-family: sans-serif; font-size: 20px; fill: rgb(42, 63, 95); fill-opacity: 1; white-space: pre; opacity: 1;">memory problems</text></g><g class="angularaxistick"><text text-anchor="end" x="-2.249999999999999" y="-3.861215932167731" transform="translate(310,238.7179676972449)" style="font-family: sans-serif; font-size: 20px; fill: rgb(42, 63, 95); fill-opacity: 1; white-space: pre; opacity: 1;">problems seeing</text></g><g class="angularaxistick"><text text-anchor="end" x="-4.5" y="6.999999999999999" transform="translate(270,308)" style="font-family: sans-serif; font-size: 20px; fill: rgb(42, 63, 95); fill-opacity: 1; white-space: pre; opacity: 1;">headache</text></g><g class="angularaxistick"><text text-anchor="end" x="-2.2500000000000018" y="24.717622392718745" transform="translate(309.99999999999994,377.28203230275506)" style="font-family: sans-serif; font-size: 20px; fill: rgb(42, 63, 95); fill-opacity: 1; white-space: pre; opacity: 1;">fatigue or tiredness</text></g><g class="angularaxistick"><text text-anchor="start" x="2.2500000000000004" y="24.717622392718745" transform="translate(390,377.28203230275506)" style="font-family: sans-serif; font-size: 20px; fill: rgb(42, 63, 95); fill-opacity: 1; white-space: pre; opacity: 1;">difficulty with concentration</text></g></g><g class="polarsublayer radial-axis" display="none"/></g></g><g class="smithlayer"/><g class="ternarylayer"/><g class="geolayer"/><g class="funnelarealayer"/><g class="pielayer"/><g class="iciclelayer"/><g class="treemaplayer"/><g class="sunburstlayer"/><g class="glimages"/><defs id="topdefs-088bf8"><g class="clips"/></defs><g class="layer-above"><g class="imagelayer"/><g class="shapelayer"/></g><g class="infolayer"><g class="g-gtitle"><text class="gtitle" x="350" y="185" text-anchor="middle" dy="0.7em" style="opacity: 1; font-family: sans-serif; font-size: 25px; fill: rgb(42, 63, 95); fill-opacity: 1; white-space: pre;">Cluster15</text></g><g class="g-polartitle"/></g></svg>