<svg class="main-svg" xmlns="http://www.w3.org/2000/svg" xmlns:xlink="http://www.w3.org/1999/xlink" width="700" height="500" style="" viewBox="0 0 700 500"><rect x="0" y="0" width="700" height="500" style="fill: rgb(255, 255, 255); fill-opacity: 1;"/><defs id="defs-8b6464"><g class="clips"><clipPath id="clip8b6464polar-for-traces"><path d="M80,0A80,80 0,1,0 -80,-9.797174393178826e-15A80,80 0,1,0 80,1.9594348786357652e-14Z" transform="translate(80,80)"/></clipPath></g><g class="gradients"/><g class="patterns"/></defs><g class="bglayer"/><g class="layer-below"><g class="imagelayer"/><g class="shapelayer"/></g><g class="cartesianlayer"/><g class="polarlayer"><g class="polar"><g class="polarsublayer draglayer"/><g class="polarsublayer plotbg"><path d="M80,0A80,80 0,1,0 -80,-9.797174393178826e-15A80,80 0,1,0 80,1.9594348786357652e-14Z" transform="translate(350,308)" style="fill: rgb(229, 236, 246); fill-opacity: 1;"/></g><g class="polarsublayer backplot"><g class="maplayer"/></g><g class="polarsublayer angular-grid" style="fill: none;"><path class="angularaxisgrid" d="M350,308L430,308" style="stroke: rgb(255, 255, 255); stroke-opacity: 1; stroke-width: 1px;"/><path class="angularaxisgrid" d="M350,308L390,238.71796769724492" style="stroke: rgb(255, 255, 255); stroke-opacity: 1; stroke-width: 1px;"/><path class="angularaxisgrid" d="M350,308L310,238.7179676972449" style="stroke: rgb(255, 255, 255); stroke-opacity: 1; stroke-width: 1px;"/><path class="angularaxisgrid" d="M350,308L270,308" style="stroke: rgb(255, 255, 255); stroke-opacity: 1; stroke-width: 1px;"/><path class="angularaxisgrid" d="M350,308L309.99999999999994,377.28203230275506" style="stroke: rgb(255, 255, 255); stroke-opacity: 1; stroke-width: 1px;"/><path class="angularaxisgrid" d="M350,308L390,377.28203230275506" style="stroke: rgb(255, 255, 255); stroke-opacity: 1; stroke-width: 1px;"/></g><g class="polarsublayer radial-grid" transform="translate(350,308)" style="fill: none;"><path class="xgrid" d="M13.68,0A13.68,13.68 0,1,0 -13.68,-1.6753168212335792e-15A13.68,13.68 0,1,0 13.68,3.3506336424671584e-15Z" style="stroke: rgb(255, 255, 255); stroke-opacity: 1; stroke-width: 1px;"/><path class="xgrid" d="M27.36,0A27.36,27.36 0,1,0 -27.36,-3.3506336424671584e-15A27.36,27.36 0,1,0 27.36,6.701267284934317e-15Z" style="stroke: rgb(255, 255, 255); stroke-opacity: 1; stroke-width: 1px;"/><path class="xgrid" d="M41.04,0A41.04,41.04 0,1,0 -41.04,-5.025950463700738e-15A41.04,41.04 0,1,0 41.04,1.0051900927401475e-14Z" style="stroke: rgb(255, 255, 255); stroke-opacity: 1; stroke-width: 1px;"/><path class="xgrid" d="M54.72,0A54.72,54.72 0,1,0 -54.72,-6.701267284934317e-15A54.72,54.72 0,1,0 54.72,1.3402534569868634e-14Z" style="stroke: rgb(255, 255, 255); stroke-opacity: 1; stroke-width: 1px;"/><path class="xgrid" d="M68.4,0A68.4,68.4 0,1,0 -68.4,-8.376584106167896e-15A68.4,68.4 0,1,0 68.4,1.6753168212335792e-14Z" style="stroke: rgb(255, 255, 255); stroke-opacity: 1; stroke-width: 1px;"/></g><g class="polarsublayer frontplot" transform="translate(270,228)" clip-path="url(#clip8b6464polar-for-traces)"><g class="barlayer"/><g class="scatterlayer"><g class="trace scatter traced151d5" style="stroke-miterlimit: 2; opacity: 1;"><g class="fills"/><g class="errorbars"/><g class="lines"><path class="js-line" d="M145.29,80L109.94,28.14L52.05,31.59L0.47,80L49.81,132.29L120,149.28L145.29,80" style="vector-effect: none; fill: none; stroke: rgb(255, 0, 0); stroke-opacity: 0.25; stroke-width: 2px; opacity: 1;"/></g><g class="points"/><g class="text"/></g><g class="trace scatter tracebfaf58" style="stroke-miterlimit: 2; opacity: 1;"><g class="fills"/><g class="errorbars"/><g class="lines"><path class="js-line" d="M140.96,80L109.4,29.09L51.02,29.8L4.12,80L49.21,133.32L119.48,148.38L140.96,80" style="vector-effect: none; fill: none; stroke: rgb(0, 0, 255); stroke-opacity: 0.25; stroke-width: 2px; opacity: 1;"/></g><g class="points"/><g class="text"/></g><g class="trace scatter trace109ace" style="stroke-miterlimit: 2; opacity: 1;"><g class="fills"/><g class="errorbars"/><g class="lines"><path class="js-line" d="M124.38,80L101.85,42.16L59.67,44.79L20.37,80L58.09,117.95L112.82,136.85L124.38,80" style="vector-effect: none; fill: none; stroke: rgb(255, 0, 0); stroke-opacity: 0.25; stroke-dasharray: 9px, 9px; stroke-width: 2px; opacity: 1;"/></g><g class="points"/><g class="text"/></g><g class="trace scatter trace04ebfb" style="stroke-miterlimit: 2; opacity: 1;"><g class="fills"/><g class="errorbars"/><g class="lines"><path class="js-line" d="M112.12,80L94.13,55.52L68.77,60.55L38.58,80L68.77,99.45L103.88,121.36L112.12,80" style="vector-effect: none; fill: none; stroke: rgb(0, 0, 255); stroke-opacity: 0.25; stroke-dasharray: 9px, 9px; stroke-width: 2px; opacity: 1;"/></g><g class="points"/><g class="text"/></g></g></g><g class="polarsublayer angular-line"><path d="M80,0A80,80 0,1,0 -80,-9.797174393178826e-15A80,80 0,1,0 80,1.9594348786357652e-14Z" transform="translate(350,308)" stroke-width="1" style="fill: none; stroke: rgb(255, 255, 255); stroke-opacity: 1;"/></g><g class="polarsublayer radial-line"><line x1="0" y1="0" x2="80" y2="0" transform="translate(350,308)" stroke-width="1" style="fill: none; stroke: rgb(255, 255, 255); stroke-opacity: 1;"/></g><g class="polarsublayer angular-axis"><g class="angularaxistick"><text text-anchor="start" x="4.5" y="7" transform="translate(430,308)" style="font-family: sans-serif; font-size: 20px; fill: rgb(42, 63, 95); fill-opacity: 1; white-space: pre; opacity: 1;">chest_pain</text></g><g class="angularaxistick"><text text-anchor="start" x="2.2500000000000004" y="-3.8612159321677275" transform="translate(390,238.71796769724492)" style="font-family: sans-serif; font-size: 20px; fill: rgb(42, 63, 95); fill-opacity: 1; white-space: pre; opacity: 1;">palpitations_heart_racing</text></g><g class="angularaxistick"><text text-anchor="end" x="-2.249999999999999" y="-3.861215932167731" transform="translate(310,238.7179676972449)" style="font-family: sans-serif; font-size: 20px; fill: rgb(42, 63, 95); fill-opacity: 1; white-space: pre; opacity: 1;">low_mood_in_normal_activities</text></g><g class="angularaxistick"><text text-anchor="end" x="-4.5" y="6.999999999999999" transform="translate(270,308)" style="font-family: sans-serif; font-size: 20px; fill: rgb(42, 63, 95); fill-opacity: 1; white-space: pre; opacity: 1;">breathlessness</text></g><g class="angularaxistick"><text text-anchor="end" x="-2.2500000000000018" y="24.717622392718745" transform="translate(309.99999999999994,377.28203230275506)" style="font-family: sans-serif; font-size: 20px; fill: rgb(42, 63, 95); fill-opacity: 1; white-space: pre; opacity: 1;">increased_anxiety_worry</text></g><g class="angularaxistick"><text text-anchor="start" x="2.2500000000000004" y="24.717622392718745" transform="translate(390,377.28203230275506)" style="font-family: sans-serif; font-size: 20px; fill: rgb(42, 63, 95); fill-opacity: 1; white-space: pre; opacity: 1;">fatigue</text></g></g><g class="polarsublayer radial-axis" display="none"/></g></g><g class="smithlayer"/><g class="ternarylayer"/><g class="geolayer"/><g class="funnelarealayer"/><g class="pielayer"/><g class="iciclelayer"/><g class="treemaplayer"/><g class="sunburstlayer"/><g class="glimages"/><defs id="topdefs-8b6464"><g class="clips"/></defs><g class="layer-above"><g class="imagelayer"/><g class="shapelayer"/></g><g class="infolayer"><g class="g-gtitle"><text class="gtitle" x="350" y="185" text-anchor="middle" dy="0.7em" style="opacity: 1; font-family: sans-serif; font-size: 25px; fill: rgb(42, 63, 95); fill-opacity: 1; white-space: pre;">Cluster2</text></g><g class="g-polartitle"/></g></svg>