<svg class="main-svg" xmlns="http://www.w3.org/2000/svg" xmlns:xlink="http://www.w3.org/1999/xlink" width="700" height="500" style="" viewBox="0 0 700 500"><rect x="0" y="0" width="700" height="500" style="fill: rgb(255, 255, 255); fill-opacity: 1;"/><defs id="defs-a7caac"><g class="clips"><clipPath id="clipa7caacpolar-for-traces"><path d="M80,0A80,80 0,1,0 -80,-9.797174393178826e-15A80,80 0,1,0 80,1.9594348786357652e-14Z" transform="translate(80,80)"/></clipPath></g><g class="gradients"/><g class="patterns"/></defs><g class="bglayer"/><g class="layer-below"><g class="imagelayer"/><g class="shapelayer"/></g><g class="cartesianlayer"/><g class="polarlayer"><g class="polar"><g class="polarsublayer draglayer"/><g class="polarsublayer plotbg"><path d="M80,0A80,80 0,1,0 -80,-9.797174393178826e-15A80,80 0,1,0 80,1.9594348786357652e-14Z" transform="translate(350,308)" style="fill: rgb(229, 236, 246); fill-opacity: 1;"/></g><g class="polarsublayer backplot"><g class="maplayer"/></g><g class="polarsublayer angular-grid" style="fill: none;"><path class="angularaxisgrid" d="M350,308L430,308" style="stroke: rgb(255, 255, 255); stroke-opacity: 1; stroke-width: 1px;"/><path class="angularaxisgrid" d="M350,308L390,238.71796769724492" style="stroke: rgb(255, 255, 255); stroke-opacity: 1; stroke-width: 1px;"/><path class="angularaxisgrid" d="M350,308L310,238.7179676972449" style="stroke: rgb(255, 255, 255); stroke-opacity: 1; stroke-width: 1px;"/><path class="angularaxisgrid" d="M350,308L270,308" style="stroke: rgb(255, 255, 255); stroke-opacity: 1; stroke-width: 1px;"/><path class="angularaxisgrid" d="M350,308L309.99999999999994,377.28203230275506" style="stroke: rgb(255, 255, 255); stroke-opacity: 1; stroke-width: 1px;"/><path class="angularaxisgrid" d="M350,308L390,377.28203230275506" style="stroke: rgb(255, 255, 255); stroke-opacity: 1; stroke-width: 1px;"/></g><g class="polarsublayer radial-grid" transform="translate(350,308)" style="fill: none;"><path class="xgrid" d="M9.44,0A9.44,9.44 0,1,0 -9.44,-1.1560665783951014e-15A9.44,9.44 0,1,0 9.44,2.312133156790203e-15Z" style="stroke: rgb(255, 255, 255); stroke-opacity: 1; stroke-width: 1px;"/><path class="xgrid" d="M18.89,0A18.89,18.89 0,1,0 -18.89,-2.3133578035893504e-15A18.89,18.89 0,1,0 18.89,4.626715607178701e-15Z" style="stroke: rgb(255, 255, 255); stroke-opacity: 1; stroke-width: 1px;"/><path class="xgrid" d="M28.33,0A28.33,28.33 0,1,0 -28.33,-3.4694243819844513e-15A28.33,28.33 0,1,0 28.33,6.9388487639689026e-15Z" style="stroke: rgb(255, 255, 255); stroke-opacity: 1; stroke-width: 1px;"/><path class="xgrid" d="M37.78,0A37.78,37.78 0,1,0 -37.78,-4.626715607178701e-15A37.78,37.78 0,1,0 37.78,9.253431214357402e-15Z" style="stroke: rgb(255, 255, 255); stroke-opacity: 1; stroke-width: 1px;"/><path class="xgrid" d="M47.22,0A47.22,47.22 0,1,0 -47.22,-5.782782185573802e-15A47.22,47.22 0,1,0 47.22,1.1565564371147603e-14Z" style="stroke: rgb(255, 255, 255); stroke-opacity: 1; stroke-width: 1px;"/><path class="xgrid" d="M56.67,0A56.67,56.67 0,1,0 -56.67,-6.940073410768051e-15A56.67,56.67 0,1,0 56.67,1.3880146821536102e-14Z" style="stroke: rgb(255, 255, 255); stroke-opacity: 1; stroke-width: 1px;"/><path class="xgrid" d="M66.11,0A66.11,66.11 0,1,0 -66.11,-8.096139989163152e-15A66.11,66.11 0,1,0 66.11,1.6192279978326304e-14Z" style="stroke: rgb(255, 255, 255); stroke-opacity: 1; stroke-width: 1px;"/><path class="xgrid" d="M75.56,0A75.56,75.56 0,1,0 -75.56,-9.253431214357402e-15A75.56,75.56 0,1,0 75.56,1.8506862428714803e-14Z" style="stroke: rgb(255, 255, 255); stroke-opacity: 1; stroke-width: 1px;"/></g><g class="polarsublayer frontplot" transform="translate(270,228)" clip-path="url(#clipa7caacpolar-for-traces)"><g class="barlayer"/><g class="scatterlayer"><g class="trace scatter trace9b5e93" style="stroke-miterlimit: 2; opacity: 1;"><g class="fills"/><g class="errorbars"/><g class="lines"><path class="js-line" d="M111.29,80L89,64.42L68.46,60.01L51.51,80L54.3,124.51L111.57,134.68L111.29,80" style="vector-effect: none; fill: none; stroke: rgb(255, 0, 0); stroke-opacity: 0.25; stroke-width: 2px; opacity: 1;"/></g><g class="points"/><g class="text"/></g><g class="trace scatter tracea5c2de" style="stroke-miterlimit: 2; opacity: 1;"><g class="fills"/><g class="errorbars"/><g class="lines"><path class="js-line" d="M118.59,80L91.05,60.87L65.61,55.07L41.43,80L49.85,132.23L120,149.28L118.59,80" style="vector-effect: none; fill: none; stroke: rgb(0, 0, 255); stroke-opacity: 0.25; stroke-width: 2px; opacity: 1;"/></g><g class="points"/><g class="text"/></g><g class="trace scatter trace75bc7a" style="stroke-miterlimit: 2; opacity: 1;"><g class="fills"/><g class="errorbars"/><g class="lines"><path class="js-line" d="M80.43,80L80.13,79.78L79.79,79.64L78.72,80L78.73,82.2L83.22,85.58L80.43,80" style="vector-effect: none; fill: none; stroke: rgb(255, 0, 0); stroke-opacity: 0.25; stroke-dasharray: 9px, 9px; stroke-width: 2px; opacity: 1;"/></g><g class="points"/><g class="text"/></g><g class="trace scatter tracea5638b" style="stroke-miterlimit: 2; opacity: 1;"><g class="fills"/><g class="errorbars"/><g class="lines"><path class="js-line" d="M80.35,80L80.1,79.82L79.83,79.71L78.92,80L79.17,81.43L82.14,83.71L80.35,80" style="vector-effect: none; fill: none; stroke: rgb(0, 0, 255); stroke-opacity: 0.25; stroke-dasharray: 9px, 9px; stroke-width: 2px; opacity: 1;"/></g><g class="points"/><g class="text"/></g></g></g><g class="polarsublayer angular-line"><path d="M80,0A80,80 0,1,0 -80,-9.797174393178826e-15A80,80 0,1,0 80,1.9594348786357652e-14Z" transform="translate(350,308)" stroke-width="1" style="fill: none; stroke: rgb(255, 255, 255); stroke-opacity: 1;"/></g><g class="polarsublayer radial-line"><line x1="0" y1="0" x2="80" y2="0" transform="translate(350,308)" stroke-width="1" style="fill: none; stroke: rgb(255, 255, 255); stroke-opacity: 1;"/></g><g class="polarsublayer angular-axis"><g class="angularaxistick"><text text-anchor="start" x="4.1" y="6.3" transform="translate(430,308)" style="font-family: sans-serif; font-size: 18px; fill: rgb(42, 63, 95); fill-opacity: 1; white-space: pre; opacity: 1;">Sore throat</text></g><g class="angularaxistick"><text text-anchor="start" x="2.0500000000000003" y="-3.518395609140176" transform="translate(390,238.71796769724492)" style="font-family: sans-serif; font-size: 18px; fill: rgb(42, 63, 95); fill-opacity: 1; white-space: pre; opacity: 1;">Runny nose</text></g><g class="angularaxistick"><text text-anchor="end" x="-2.049999999999999" y="-3.518395609140179" transform="translate(310,238.7179676972449)" style="font-family: sans-serif; font-size: 18px; fill: rgb(42, 63, 95); fill-opacity: 1; white-space: pre; opacity: 1;">Abnormal body temp</text></g><g class="angularaxistick"><text text-anchor="end" x="-4.1" y="6.299999999999999" transform="translate(270,308)" style="font-family: sans-serif; font-size: 18px; fill: rgb(42, 63, 95); fill-opacity: 1; white-space: pre; opacity: 1;">Fever</text></g><g class="angularaxistick"><text text-anchor="end" x="-2.0500000000000016" y="22.28916142363609" transform="translate(309.99999999999994,377.28203230275506)" style="font-family: sans-serif; font-size: 18px; fill: rgb(42, 63, 95); fill-opacity: 1; white-space: pre; opacity: 1;">Loss of smell</text></g><g class="angularaxistick"><text text-anchor="start" x="2.0500000000000003" y="22.289161423636095" transform="translate(390,377.28203230275506)" style="font-family: sans-serif; font-size: 18px; fill: rgb(42, 63, 95); fill-opacity: 1; white-space: pre; opacity: 1;">Headache</text></g></g><g class="polarsublayer radial-axis" display="none"/></g></g><g class="smithlayer"/><g class="ternarylayer"/><g class="geolayer"/><g class="funnelarealayer"/><g class="pielayer"/><g class="iciclelayer"/><g class="treemaplayer"/><g class="sunburstlayer"/><g class="glimages"/><defs id="topdefs-a7caac"><g class="clips"/></defs><g class="layer-above"><g class="imagelayer"/><g class="shapelayer"/></g><g class="infolayer"><g class="g-gtitle"><text class="gtitle" x="350" y="185" text-anchor="middle" dy="0.7em" style="opacity: 1; font-family: sans-serif; font-size: 20px; fill: rgb(42, 63, 95); fill-opacity: 1; white-space: pre;">Cluster14</text></g><g class="g-polartitle"/></g></svg>