<svg class="main-svg" xmlns="http://www.w3.org/2000/svg" xmlns:xlink="http://www.w3.org/1999/xlink" width="700" height="500" style="" viewBox="0 0 700 500"><rect x="0" y="0" width="700" height="500" style="fill: rgb(255, 255, 255); fill-opacity: 1;"/><defs id="defs-e2031a"><g class="clips"><clipPath id="clipe2031apolar-for-traces"><path d="M80,0A80,80 0,1,0 -80,-9.797174393178826e-15A80,80 0,1,0 80,1.9594348786357652e-14Z" transform="translate(80,80)"/></clipPath></g><g class="gradients"/><g class="patterns"/></defs><g class="bglayer"/><g class="layer-below"><g class="imagelayer"/><g class="shapelayer"/></g><g class="cartesianlayer"/><g class="polarlayer"><g class="polar"><g class="polarsublayer draglayer"/><g class="polarsublayer plotbg"><path d="M80,0A80,80 0,1,0 -80,-9.797174393178826e-15A80,80 0,1,0 80,1.9594348786357652e-14Z" transform="translate(350,308)" style="fill: rgb(229, 236, 246); fill-opacity: 1;"/></g><g class="polarsublayer backplot"><g class="maplayer"/></g><g class="polarsublayer angular-grid" style="fill: none;"><path class="angularaxisgrid" d="M350,308L430,308" style="stroke: rgb(255, 255, 255); stroke-opacity: 1; stroke-width: 1px;"/><path class="angularaxisgrid" d="M350,308L390,238.71796769724492" style="stroke: rgb(255, 255, 255); stroke-opacity: 1; stroke-width: 1px;"/><path class="angularaxisgrid" d="M350,308L310,238.7179676972449" style="stroke: rgb(255, 255, 255); stroke-opacity: 1; stroke-width: 1px;"/><path class="angularaxisgrid" d="M350,308L270,308" style="stroke: rgb(255, 255, 255); stroke-opacity: 1; stroke-width: 1px;"/><path class="angularaxisgrid" d="M350,308L309.99999999999994,377.28203230275506" style="stroke: rgb(255, 255, 255); stroke-opacity: 1; stroke-width: 1px;"/><path class="angularaxisgrid" d="M350,308L390,377.28203230275506" style="stroke: rgb(255, 255, 255); stroke-opacity: 1; stroke-width: 1px;"/></g><g class="polarsublayer radial-grid" transform="translate(350,308)" style="fill: none;"><path class="xgrid" d="M15.07,0A15.07,15.07 0,1,0 -15.07,-1.8455427263150614e-15A15.07,15.07 0,1,0 15.07,3.691085452630123e-15Z" style="stroke: rgb(255, 255, 255); stroke-opacity: 1; stroke-width: 1px;"/><path class="xgrid" d="M30.15,0A30.15,30.15 0,1,0 -30.15,-3.69231009942927e-15A30.15,30.15 0,1,0 30.15,7.38462019885854e-15Z" style="stroke: rgb(255, 255, 255); stroke-opacity: 1; stroke-width: 1px;"/><path class="xgrid" d="M45.22,0A45.22,45.22 0,1,0 -45.22,-5.5378528257443314e-15A45.22,45.22 0,1,0 45.22,1.1075705651488663e-14Z" style="stroke: rgb(255, 255, 255); stroke-opacity: 1; stroke-width: 1px;"/><path class="xgrid" d="M60.29,0A60.29,60.29 0,1,0 -60.29,-7.383395552059392e-15A60.29,60.29 0,1,0 60.29,1.4766791104118785e-14Z" style="stroke: rgb(255, 255, 255); stroke-opacity: 1; stroke-width: 1px;"/><path class="xgrid" d="M75.37,0A75.37,75.37 0,1,0 -75.37,-9.230162925173602e-15A75.37,75.37 0,1,0 75.37,1.8460325850347204e-14Z" style="stroke: rgb(255, 255, 255); stroke-opacity: 1; stroke-width: 1px;"/></g><g class="polarsublayer frontplot" transform="translate(270,228)" clip-path="url(#clipe2031apolar-for-traces)"><g class="barlayer"/><g class="scatterlayer"><g class="trace scatter trace981525" style="stroke-miterlimit: 2; opacity: 1;"><g class="fills"/><g class="errorbars"/><g class="lines"><path class="js-line" d="M108.62,80L85.99,69.63L58.38,42.56L74.02,80L69.25,98.62L97.6,110.49L108.62,80" style="vector-effect: none; fill: none; stroke: rgb(255, 0, 0); stroke-opacity: 0.25; stroke-width: 2px; opacity: 1;"/></g><g class="points"/><g class="text"/></g><g class="trace scatter trace1754f0" style="stroke-miterlimit: 2; opacity: 1;"><g class="fills"/><g class="errorbars"/><g class="lines"><path class="js-line" d="M102.17,80L84.68,71.89L64.56,53.26L75.25,80L70.84,95.86L92.09,100.94L102.17,80" style="vector-effect: none; fill: none; stroke: rgb(0, 0, 255); stroke-opacity: 0.25; stroke-width: 2px; opacity: 1;"/></g><g class="points"/><g class="text"/></g><g class="trace scatter tracebe9e1f" style="stroke-miterlimit: 2; opacity: 1;"><g class="fills"/><g class="errorbars"/><g class="lines"><path class="js-line" d="M128.37,80L88.98,64.45L40,10.72L70.72,80L59.69,115.17L116.22,142.74L128.37,80" style="vector-effect: none; fill: none; stroke: rgb(255, 0, 0); stroke-opacity: 0.25; stroke-dasharray: 9px, 9px; stroke-width: 2px; opacity: 1;"/></g><g class="points"/><g class="text"/></g><g class="trace scatter trace8023af" style="stroke-miterlimit: 2; opacity: 1;"><g class="fills"/><g class="errorbars"/><g class="lines"><path class="js-line" d="M125.96,80L86.49,68.75L42.49,15.03L73.4,80L62.38,110.52L114.09,139.04L125.96,80" style="vector-effect: none; fill: none; stroke: rgb(0, 0, 255); stroke-opacity: 0.25; stroke-dasharray: 9px, 9px; stroke-width: 2px; opacity: 1;"/></g><g class="points"/><g class="text"/></g></g></g><g class="polarsublayer angular-line"><path d="M80,0A80,80 0,1,0 -80,-9.797174393178826e-15A80,80 0,1,0 80,1.9594348786357652e-14Z" transform="translate(350,308)" stroke-width="1" style="fill: none; stroke: rgb(255, 255, 255); stroke-opacity: 1;"/></g><g class="polarsublayer radial-line"><line x1="0" y1="0" x2="80" y2="0" transform="translate(350,308)" stroke-width="1" style="fill: none; stroke: rgb(255, 255, 255); stroke-opacity: 1;"/></g><g class="polarsublayer angular-axis"><g class="angularaxistick"><text text-anchor="start" x="4.1" y="6.3" transform="translate(430,308)" style="font-family: sans-serif; font-size: 18px; fill: rgb(42, 63, 95); fill-opacity: 1; white-space: pre; opacity: 1;">Shortness of breath</text></g><g class="angularaxistick"><text text-anchor="start" x="2.0500000000000003" y="-3.518395609140176" transform="translate(390,238.71796769724492)" style="font-family: sans-serif; font-size: 18px; fill: rgb(42, 63, 95); fill-opacity: 1; white-space: pre; opacity: 1;">Cough</text></g><g class="angularaxistick"><text text-anchor="end" x="-2.049999999999999" y="-3.518395609140179" transform="translate(310,238.7179676972449)" style="font-family: sans-serif; font-size: 18px; fill: rgb(42, 63, 95); fill-opacity: 1; white-space: pre; opacity: 1;">Fatigue</text></g><g class="angularaxistick"><text text-anchor="end" x="-4.1" y="6.299999999999999" transform="translate(270,308)" style="font-family: sans-serif; font-size: 18px; fill: rgb(42, 63, 95); fill-opacity: 1; white-space: pre; opacity: 1;">Loss of smell</text></g><g class="angularaxistick"><text text-anchor="end" x="-2.0500000000000016" y="22.28916142363609" transform="translate(309.99999999999994,377.28203230275506)" style="font-family: sans-serif; font-size: 18px; fill: rgb(42, 63, 95); fill-opacity: 1; white-space: pre; opacity: 1;">Chest pain</text></g><g class="angularaxistick"><text text-anchor="start" x="2.0500000000000003" y="22.289161423636095" transform="translate(390,377.28203230275506)" style="font-family: sans-serif; font-size: 18px; fill: rgb(42, 63, 95); fill-opacity: 1; white-space: pre; opacity: 1;">Poor concentration</text></g></g><g class="polarsublayer radial-axis" display="none"/></g></g><g class="smithlayer"/><g class="ternarylayer"/><g class="geolayer"/><g class="funnelarealayer"/><g class="pielayer"/><g class="iciclelayer"/><g class="treemaplayer"/><g class="sunburstlayer"/><g class="glimages"/><defs id="topdefs-e2031a"><g class="clips"/></defs><g class="layer-above"><g class="imagelayer"/><g class="shapelayer"/></g><g class="infolayer"><g class="g-gtitle"><text class="gtitle" x="350" y="185" text-anchor="middle" dy="0.7em" style="opacity: 1; font-family: sans-serif; font-size: 20px; fill: rgb(42, 63, 95); fill-opacity: 1; white-space: pre;">Cluster1</text></g><g class="g-polartitle"/></g></svg>