<svg class="main-svg" xmlns="http://www.w3.org/2000/svg" xmlns:xlink="http://www.w3.org/1999/xlink" width="700" height="500" style="" viewBox="0 0 700 500"><rect x="0" y="0" width="700" height="500" style="fill: rgb(255, 255, 255); fill-opacity: 1;"/><defs id="defs-a1d034"><g class="clips"><clipPath id="clipa1d034polar-for-traces"><path d="M80,0A80,80 0,1,0 -80,-9.797174393178826e-15A80,80 0,1,0 80,1.9594348786357652e-14Z" transform="translate(80,80)"/></clipPath></g><g class="gradients"/><g class="patterns"/></defs><g class="bglayer"/><g class="layer-below"><g class="imagelayer"/><g class="shapelayer"/></g><g class="cartesianlayer"/><g class="polarlayer"><g class="polar"><g class="polarsublayer draglayer"/><g class="polarsublayer plotbg"><path d="M80,0A80,80 0,1,0 -80,-9.797174393178826e-15A80,80 0,1,0 80,1.9594348786357652e-14Z" transform="translate(350,308)" style="fill: rgb(229, 236, 246); fill-opacity: 1;"/></g><g class="polarsublayer backplot"><g class="maplayer"/></g><g class="polarsublayer angular-grid" style="fill: none;"><path class="angularaxisgrid" d="M350,308L430,308" style="stroke: rgb(255, 255, 255); stroke-opacity: 1; stroke-width: 1px;"/><path class="angularaxisgrid" d="M350,308L390,238.71796769724492" style="stroke: rgb(255, 255, 255); stroke-opacity: 1; stroke-width: 1px;"/><path class="angularaxisgrid" d="M350,308L310,238.7179676972449" style="stroke: rgb(255, 255, 255); stroke-opacity: 1; stroke-width: 1px;"/><path class="angularaxisgrid" d="M350,308L270,308" style="stroke: rgb(255, 255, 255); stroke-opacity: 1; stroke-width: 1px;"/><path class="angularaxisgrid" d="M350,308L309.99999999999994,377.28203230275506" style="stroke: rgb(255, 255, 255); stroke-opacity: 1; stroke-width: 1px;"/><path class="angularaxisgrid" d="M350,308L390,377.28203230275506" style="stroke: rgb(255, 255, 255); stroke-opacity: 1; stroke-width: 1px;"/></g><g class="polarsublayer radial-grid" transform="translate(350,308)" style="fill: none;"><path class="xgrid" d="M12.45,0A12.45,12.45 0,1,0 -12.45,-1.5246852649384546e-15A12.45,12.45 0,1,0 12.45,3.0493705298769093e-15Z" style="stroke: rgb(255, 255, 255); stroke-opacity: 1; stroke-width: 1px;"/><path class="xgrid" d="M24.91,0A24.91,24.91 0,1,0 -24.91,-3.050595176676057e-15A24.91,24.91 0,1,0 24.91,6.101190353352114e-15Z" style="stroke: rgb(255, 255, 255); stroke-opacity: 1; stroke-width: 1px;"/><path class="xgrid" d="M37.36,0A37.36,37.36 0,1,0 -37.36,-4.5752804416145115e-15A37.36,37.36 0,1,0 37.36,9.150560883229023e-15Z" style="stroke: rgb(255, 255, 255); stroke-opacity: 1; stroke-width: 1px;"/><path class="xgrid" d="M49.81,0A49.81,49.81 0,1,0 -49.81,-6.099965706552967e-15A49.81,49.81 0,1,0 49.81,1.2199931413105934e-14Z" style="stroke: rgb(255, 255, 255); stroke-opacity: 1; stroke-width: 1px;"/><path class="xgrid" d="M62.27,0A62.27,62.27 0,1,0 -62.27,-7.625875618290569e-15A62.27,62.27 0,1,0 62.27,1.5251751236581138e-14Z" style="stroke: rgb(255, 255, 255); stroke-opacity: 1; stroke-width: 1px;"/><path class="xgrid" d="M74.72,0A74.72,74.72 0,1,0 -74.72,-9.150560883229023e-15A74.72,74.72 0,1,0 74.72,1.8301121766458046e-14Z" style="stroke: rgb(255, 255, 255); stroke-opacity: 1; stroke-width: 1px;"/></g><g class="polarsublayer frontplot" transform="translate(270,228)" clip-path="url(#clipa1d034polar-for-traces)"><g class="barlayer"/><g class="scatterlayer"><g class="trace scatter traced44340" style="stroke-miterlimit: 2; opacity: 0.25;"><g class="fills"/><g class="errorbars"/><g class="lines"><path class="js-line" d="M89.36,80L90.68,61.5L46.63,22.2L61.06,80L72.7,92.64L98.09,111.33L89.36,80" style="vector-effect: none; fill: none; stroke: rgb(255, 0, 0); stroke-opacity: 1; stroke-width: 2px; opacity: 1;"/></g><g class="points"/><g class="text"/></g><g class="trace scatter trace4b14fd" style="stroke-miterlimit: 2; opacity: 0.25;"><g class="fills"/><g class="errorbars"/><g class="lines"><path class="js-line" d="M89.76,80L90.89,61.15L48.1,24.75L59.51,80L74.11,90.2L99.27,113.38L89.76,80" style="vector-effect: none; fill: none; stroke: rgb(255, 0, 0); stroke-opacity: 1; stroke-width: 2px; opacity: 1;"/></g><g class="points"/><g class="text"/></g><g class="trace scatter trace432698" style="stroke-miterlimit: 2; opacity: 0.25;"><g class="fills"/><g class="errorbars"/><g class="lines"><path class="js-line" d="M92.96,80L94.92,54.16L40,10.72L54.36,80L74.18,90.08L90.53,98.23L92.96,80" style="vector-effect: none; fill: none; stroke: rgb(255, 0, 0); stroke-opacity: 1; stroke-width: 2px; opacity: 1;"/></g><g class="points"/><g class="text"/></g><g class="trace scatter traceb0e3bd" style="stroke-miterlimit: 2; opacity: 0.25;"><g class="fills"/><g class="errorbars"/><g class="lines"><path class="js-line" d="M92.69,80L95.02,53.99L52.49,32.34L55.06,80L65.87,104.47L82.43,84.21L92.69,80" style="vector-effect: none; fill: none; stroke: rgb(0, 0, 255); stroke-opacity: 1; stroke-width: 2px; opacity: 1;"/></g><g class="points"/><g class="text"/></g></g></g><g class="polarsublayer angular-line"><path d="M80,0A80,80 0,1,0 -80,-9.797174393178826e-15A80,80 0,1,0 80,1.9594348786357652e-14Z" transform="translate(350,308)" stroke-width="1" style="fill: none; stroke: rgb(255, 255, 255); stroke-opacity: 1;"/></g><g class="polarsublayer radial-line"><line x1="0" y1="0" x2="80" y2="0" transform="translate(350,308)" stroke-width="1" style="fill: none; stroke: rgb(255, 255, 255); stroke-opacity: 1;"/></g><g class="polarsublayer angular-axis"><g class="angularaxistick"><text text-anchor="start" x="4.1" y="6.3" transform="translate(430,308)" style="font-family: sans-serif; font-size: 18px; fill: rgb(42, 63, 95); fill-opacity: 1; white-space: pre; opacity: 1;">Problems during sex</text></g><g class="angularaxistick"><text text-anchor="start" x="2.0500000000000003" y="-3.518395609140176" transform="translate(390,238.71796769724492)" style="font-family: sans-serif; font-size: 18px; fill: rgb(42, 63, 95); fill-opacity: 1; white-space: pre; opacity: 1;">Rash, skin lesions</text></g><g class="angularaxistick"><text text-anchor="end" x="-2.049999999999999" y="-3.518395609140179" transform="translate(310,238.7179676972449)" style="font-family: sans-serif; font-size: 18px; fill: rgb(42, 63, 95); fill-opacity: 1; white-space: pre; opacity: 1;">Joint pain</text></g><g class="angularaxistick"><text text-anchor="end" x="-4.1" y="6.299999999999999" transform="translate(270,308)" style="font-family: sans-serif; font-size: 18px; fill: rgb(42, 63, 95); fill-opacity: 1; white-space: pre; opacity: 1;">Chills</text></g><g class="angularaxistick"><text text-anchor="end" x="-2.0500000000000016" y="22.28916142363609" transform="translate(309.99999999999994,377.28203230275506)" style="font-family: sans-serif; font-size: 18px; fill: rgb(42, 63, 95); fill-opacity: 1; white-space: pre; opacity: 1;">Change in vision</text></g><g class="angularaxistick"><text text-anchor="start" x="2.0500000000000003" y="22.289161423636095" transform="translate(390,377.28203230275506)" style="font-family: sans-serif; font-size: 18px; fill: rgb(42, 63, 95); fill-opacity: 1; white-space: pre; opacity: 1;">Fever</text></g></g><g class="polarsublayer radial-axis" display="none"/></g></g><g class="smithlayer"/><g class="ternarylayer"/><g class="geolayer"/><g class="funnelarealayer"/><g class="pielayer"/><g class="iciclelayer"/><g class="treemaplayer"/><g class="sunburstlayer"/><g class="glimages"/><defs id="topdefs-a1d034"><g class="clips"/></defs><g class="layer-above"><g class="imagelayer"/><g class="shapelayer"/></g><g class="infolayer"><g class="g-gtitle"><text class="gtitle" x="350" y="185" text-anchor="middle" dy="0.7em" style="opacity: 1; font-family: sans-serif; font-size: 20px; fill: rgb(42, 63, 95); fill-opacity: 1; white-space: pre;">Cluster13: 4 patients</text></g><g class="g-polartitle"/></g></svg>