<svg class="main-svg" xmlns="http://www.w3.org/2000/svg" xmlns:xlink="http://www.w3.org/1999/xlink" width="700" height="500" style="" viewBox="0 0 700 500"><rect x="0" y="0" width="700" height="500" style="fill: rgb(255, 255, 255); fill-opacity: 1;"/><defs id="defs-41803d"><g class="clips"><clipPath id="clip41803dpolar-for-traces"><path d="M80,0A80,80 0,1,0 -80,-9.797174393178826e-15A80,80 0,1,0 80,1.9594348786357652e-14Z" transform="translate(80,80)"/></clipPath></g><g class="gradients"/><g class="patterns"/></defs><g class="bglayer"/><g class="layer-below"><g class="imagelayer"/><g class="shapelayer"/></g><g class="cartesianlayer"/><g class="polarlayer"><g class="polar"><g class="polarsublayer draglayer"/><g class="polarsublayer plotbg"><path d="M80,0A80,80 0,1,0 -80,-9.797174393178826e-15A80,80 0,1,0 80,1.9594348786357652e-14Z" transform="translate(350,308)" style="fill: rgb(229, 236, 246); fill-opacity: 1;"/></g><g class="polarsublayer backplot"><g class="maplayer"/></g><g class="polarsublayer angular-grid" style="fill: none;"><path class="angularaxisgrid" d="M350,308L430,308" style="stroke: rgb(255, 255, 255); stroke-opacity: 1; stroke-width: 1px;"/><path class="angularaxisgrid" d="M350,308L390,238.71796769724492" style="stroke: rgb(255, 255, 255); stroke-opacity: 1; stroke-width: 1px;"/><path class="angularaxisgrid" d="M350,308L310,238.7179676972449" style="stroke: rgb(255, 255, 255); stroke-opacity: 1; stroke-width: 1px;"/><path class="angularaxisgrid" d="M350,308L270,308" style="stroke: rgb(255, 255, 255); stroke-opacity: 1; stroke-width: 1px;"/><path class="angularaxisgrid" d="M350,308L309.99999999999994,377.28203230275506" style="stroke: rgb(255, 255, 255); stroke-opacity: 1; stroke-width: 1px;"/><path class="angularaxisgrid" d="M350,308L390,377.28203230275506" style="stroke: rgb(255, 255, 255); stroke-opacity: 1; stroke-width: 1px;"/></g><g class="polarsublayer radial-grid" transform="translate(350,308)" style="fill: none;"><path class="xgrid" d="M9.04,0A9.04,9.04 0,1,0 -9.04,-1.1070807064292072e-15A9.04,9.04 0,1,0 9.04,2.2141614128584144e-15Z" style="stroke: rgb(255, 255, 255); stroke-opacity: 1; stroke-width: 1px;"/><path class="xgrid" d="M18.07,0A18.07,18.07 0,1,0 -18.07,-2.2129367660592673e-15A18.07,18.07 0,1,0 18.07,4.4258735321185345e-15Z" style="stroke: rgb(255, 255, 255); stroke-opacity: 1; stroke-width: 1px;"/><path class="xgrid" d="M27.11,0A27.11,27.11 0,1,0 -27.11,-3.3200174724884747e-15A27.11,27.11 0,1,0 27.11,6.640034944976949e-15Z" style="stroke: rgb(255, 255, 255); stroke-opacity: 1; stroke-width: 1px;"/><path class="xgrid" d="M36.14,0A36.14,36.14 0,1,0 -36.14,-4.4258735321185345e-15A36.14,36.14 0,1,0 36.14,8.851747064237069e-15Z" style="stroke: rgb(255, 255, 255); stroke-opacity: 1; stroke-width: 1px;"/><path class="xgrid" d="M45.18,0A45.18,45.18 0,1,0 -45.18,-5.532954238547742e-15A45.18,45.18 0,1,0 45.18,1.1065908477095484e-14Z" style="stroke: rgb(255, 255, 255); stroke-opacity: 1; stroke-width: 1px;"/><path class="xgrid" d="M54.21,0A54.21,54.21 0,1,0 -54.21,-6.638810298177802e-15A54.21,54.21 0,1,0 54.21,1.3277620596355604e-14Z" style="stroke: rgb(255, 255, 255); stroke-opacity: 1; stroke-width: 1px;"/><path class="xgrid" d="M63.25,0A63.25,63.25 0,1,0 -63.25,-7.745891004607009e-15A63.25,63.25 0,1,0 63.25,1.5491782009214018e-14Z" style="stroke: rgb(255, 255, 255); stroke-opacity: 1; stroke-width: 1px;"/><path class="xgrid" d="M72.29,0A72.29,72.29 0,1,0 -72.29,-8.852971711036217e-15A72.29,72.29 0,1,0 72.29,1.7705943422072435e-14Z" style="stroke: rgb(255, 255, 255); stroke-opacity: 1; stroke-width: 1px;"/></g><g class="polarsublayer frontplot" transform="translate(270,228)" clip-path="url(#clip41803dpolar-for-traces)"><g class="barlayer"/><g class="scatterlayer"><g class="trace scatter traced7343d" style="stroke-miterlimit: 2; opacity: 0.25;"><g class="fills"/><g class="errorbars"/><g class="lines"><path class="js-line" d="M112.09,80L105.52,35.8L64.58,53.29L59.12,80L57.97,118.15L90.22,97.71L112.09,80" style="vector-effect: none; fill: none; stroke: rgb(0, 0, 255); stroke-opacity: 1; stroke-width: 2px; opacity: 1;"/></g><g class="points"/><g class="text"/></g><g class="trace scatter trace7e16a7" style="stroke-miterlimit: 2; opacity: 0.25;"><g class="fills"/><g class="errorbars"/><g class="lines"><path class="js-line" d="M123.64,80L115.44,18.61L59.11,43.82L52.94,80L47.73,135.9L93.35,103.12L123.64,80" style="vector-effect: none; fill: none; stroke: rgb(255, 0, 0); stroke-opacity: 1; stroke-width: 2px; opacity: 1;"/></g><g class="points"/><g class="text"/></g><g class="trace scatter trace0796b6" style="stroke-miterlimit: 2; opacity: 0.25;"><g class="fills"/><g class="errorbars"/><g class="lines"><path class="js-line" d="M119.47,80L110.77,26.7L61.18,47.41L55.61,80L55.19,122.97L91.88,100.58L119.47,80" style="vector-effect: none; fill: none; stroke: rgb(255, 0, 0); stroke-opacity: 1; stroke-width: 2px; opacity: 1;"/></g><g class="points"/><g class="text"/></g><g class="trace scatter trace15e117" style="stroke-miterlimit: 2; opacity: 0.25;"><g class="fills"/><g class="errorbars"/><g class="lines"><path class="js-line" d="M115.26,80L107.8,31.86L63.24,50.98L56.81,80L55.78,121.95L92.5,101.66L115.26,80" style="vector-effect: none; fill: none; stroke: rgb(255, 0, 0); stroke-opacity: 1; stroke-width: 2px; opacity: 1;"/></g><g class="points"/><g class="text"/></g><g class="trace scatter traceb515aa" style="stroke-miterlimit: 2; opacity: 0.25;"><g class="fills"/><g class="errorbars"/><g class="lines"><path class="js-line" d="M130.27,80L120,10.72L55.92,38.28L50.14,80L46.71,137.66L93.01,102.53L130.27,80" style="vector-effect: none; fill: none; stroke: rgb(255, 0, 0); stroke-opacity: 1; stroke-width: 2px; opacity: 1;"/></g><g class="points"/><g class="text"/></g></g></g><g class="polarsublayer angular-line"><path d="M80,0A80,80 0,1,0 -80,-9.797174393178826e-15A80,80 0,1,0 80,1.9594348786357652e-14Z" transform="translate(350,308)" stroke-width="1" style="fill: none; stroke: rgb(255, 255, 255); stroke-opacity: 1;"/></g><g class="polarsublayer radial-line"><line x1="0" y1="0" x2="80" y2="0" transform="translate(350,308)" stroke-width="1" style="fill: none; stroke: rgb(255, 255, 255); stroke-opacity: 1;"/></g><g class="polarsublayer angular-axis"><g class="angularaxistick"><text text-anchor="start" x="4.1" y="6.3" transform="translate(430,308)" style="font-family: sans-serif; font-size: 18px; fill: rgb(42, 63, 95); fill-opacity: 1; white-space: pre; opacity: 1;">Constipation</text></g><g class="angularaxistick"><text text-anchor="start" x="2.0500000000000003" y="-3.518395609140176" transform="translate(390,238.71796769724492)" style="font-family: sans-serif; font-size: 18px; fill: rgb(42, 63, 95); fill-opacity: 1; white-space: pre; opacity: 1;">Diarrhea</text></g><g class="angularaxistick"><text text-anchor="end" x="-2.049999999999999" y="-3.518395609140179" transform="translate(310,238.7179676972449)" style="font-family: sans-serif; font-size: 18px; fill: rgb(42, 63, 95); fill-opacity: 1; white-space: pre; opacity: 1;">Loss of appetite</text></g><g class="angularaxistick"><text text-anchor="end" x="-4.1" y="6.299999999999999" transform="translate(270,308)" style="font-family: sans-serif; font-size: 18px; fill: rgb(42, 63, 95); fill-opacity: 1; white-space: pre; opacity: 1;">Back pain</text></g><g class="angularaxistick"><text text-anchor="end" x="-2.0500000000000016" y="22.28916142363609" transform="translate(309.99999999999994,377.28203230275506)" style="font-family: sans-serif; font-size: 18px; fill: rgb(42, 63, 95); fill-opacity: 1; white-space: pre; opacity: 1;">Abdominal pain</text></g><g class="angularaxistick"><text text-anchor="start" x="2.0500000000000003" y="22.289161423636095" transform="translate(390,377.28203230275506)" style="font-family: sans-serif; font-size: 18px; fill: rgb(42, 63, 95); fill-opacity: 1; white-space: pre; opacity: 1;">Nausea</text></g></g><g class="polarsublayer radial-axis" display="none"/></g></g><g class="smithlayer"/><g class="ternarylayer"/><g class="geolayer"/><g class="funnelarealayer"/><g class="pielayer"/><g class="iciclelayer"/><g class="treemaplayer"/><g class="sunburstlayer"/><g class="glimages"/><defs id="topdefs-41803d"><g class="clips"/></defs><g class="layer-above"><g class="imagelayer"/><g class="shapelayer"/></g><g class="infolayer"><g class="g-gtitle"><text class="gtitle" x="350" y="185" text-anchor="middle" dy="0.7em" style="opacity: 1; font-family: sans-serif; font-size: 20px; fill: rgb(42, 63, 95); fill-opacity: 1; white-space: pre;">Cluster11: 5 patients</text></g><g class="g-polartitle"/></g></svg>